<?xml version="1.0" encoding="UTF-8" standalone="no"?>
<!DOCTYPE svg PUBLIC "-//W3C//DTD SVG 1.1//EN" "http://www.w3.org/Graphics/SVG/1.1/DTD/svg11.dtd">
<svg width="100%" height="100%" viewBox="0 0 535 33" version="1.1" xmlns="http://www.w3.org/2000/svg" xmlns:xlink="http://www.w3.org/1999/xlink" xml:space="preserve" xmlns:serif="http://www.serif.com/" style="fill-rule:evenodd;clip-rule:evenodd;stroke-linejoin:round;stroke-miterlimit:2;">
    <g transform="matrix(1,0,0,1,-127.400396,-1637.120781)">
        <g transform="matrix(1,0,0,1,-1683.523555,1505.12977)">
            <g>
                <g transform="matrix(33.333333,0,0,33.333333,1808.954549,157.153772)">
                    <path d="M0.456,-0.616C0.417,-0.616 0.381,-0.609 0.348,-0.595C0.315,-0.581 0.286,-0.561 0.262,-0.535C0.239,-0.51 0.22,-0.478 0.207,-0.442C0.193,-0.405 0.187,-0.364 0.187,-0.319C0.187,-0.273 0.194,-0.232 0.208,-0.196C0.223,-0.159 0.243,-0.128 0.268,-0.102C0.293,-0.076 0.323,-0.057 0.357,-0.043C0.391,-0.029 0.428,-0.022 0.467,-0.022C0.495,-0.022 0.521,-0.026 0.543,-0.033C0.566,-0.041 0.587,-0.052 0.605,-0.066L0.605,-0.293L0.482,-0.293L0.482,-0.332L0.714,-0.332L0.714,-0.047C0.695,-0.037 0.676,-0.028 0.657,-0.021C0.638,-0.013 0.617,-0.006 0.594,-0.001C0.572,0.004 0.548,0.008 0.521,0.011C0.494,0.014 0.464,0.015 0.43,0.015C0.394,0.015 0.36,0.011 0.328,0.003C0.296,-0.005 0.266,-0.016 0.239,-0.031C0.211,-0.045 0.186,-0.063 0.164,-0.083C0.142,-0.104 0.123,-0.126 0.108,-0.151C0.092,-0.176 0.08,-0.202 0.072,-0.231C0.063,-0.259 0.059,-0.289 0.059,-0.319C0.059,-0.349 0.063,-0.379 0.071,-0.407C0.079,-0.436 0.09,-0.463 0.105,-0.489C0.12,-0.515 0.139,-0.538 0.16,-0.559C0.182,-0.58 0.206,-0.598 0.233,-0.614C0.26,-0.629 0.289,-0.641 0.321,-0.649C0.353,-0.658 0.387,-0.662 0.423,-0.662C0.457,-0.662 0.489,-0.657 0.518,-0.648C0.547,-0.639 0.573,-0.627 0.597,-0.611C0.621,-0.596 0.643,-0.578 0.661,-0.558C0.68,-0.538 0.696,-0.517 0.709,-0.496L0.662,-0.464C0.635,-0.517 0.604,-0.555 0.571,-0.579C0.538,-0.604 0.499,-0.616 0.456,-0.616Z" style="fill:rgb(200,80,0);fill-rule:nonzero;"/>
                </g>
                <g transform="matrix(33.333333,0,0,33.333333,1835.354289,157.153772)">
                    <path d="M0.299,0.011C0.265,0.011 0.234,0.004 0.204,-0.008C0.174,-0.021 0.148,-0.038 0.126,-0.06C0.104,-0.082 0.086,-0.108 0.073,-0.137C0.061,-0.166 0.054,-0.198 0.054,-0.231C0.054,-0.271 0.06,-0.308 0.072,-0.342C0.083,-0.376 0.1,-0.405 0.122,-0.43C0.143,-0.455 0.169,-0.474 0.199,-0.488C0.229,-0.502 0.263,-0.509 0.3,-0.509C0.332,-0.509 0.362,-0.503 0.39,-0.492C0.417,-0.48 0.441,-0.465 0.46,-0.446C0.48,-0.426 0.495,-0.404 0.506,-0.378C0.517,-0.353 0.522,-0.326 0.522,-0.299L0.15,-0.299C0.15,-0.265 0.154,-0.234 0.163,-0.206C0.171,-0.177 0.184,-0.152 0.199,-0.131C0.215,-0.111 0.233,-0.094 0.255,-0.083C0.276,-0.071 0.3,-0.065 0.326,-0.065C0.347,-0.065 0.368,-0.068 0.388,-0.075C0.408,-0.082 0.426,-0.092 0.442,-0.103C0.458,-0.114 0.472,-0.127 0.483,-0.142C0.494,-0.157 0.502,-0.172 0.507,-0.188L0.536,-0.175C0.528,-0.149 0.517,-0.125 0.501,-0.103C0.485,-0.08 0.466,-0.06 0.445,-0.044C0.424,-0.027 0.401,-0.014 0.375,-0.004C0.35,0.006 0.325,0.011 0.299,0.011ZM0.398,-0.339C0.398,-0.358 0.395,-0.375 0.388,-0.392C0.381,-0.408 0.372,-0.422 0.36,-0.434C0.349,-0.446 0.335,-0.455 0.319,-0.462C0.304,-0.469 0.287,-0.472 0.269,-0.472C0.254,-0.472 0.24,-0.469 0.226,-0.462C0.212,-0.455 0.2,-0.446 0.189,-0.434C0.179,-0.422 0.17,-0.408 0.163,-0.392C0.156,-0.376 0.152,-0.358 0.15,-0.339L0.398,-0.339Z" style="fill:rgb(200,80,0);fill-rule:nonzero;"/>
                </g>
                <g transform="matrix(33.333333,0,0,33.333333,1854.983195,157.153772)">
                    <path d="M0.193,-0.67L0.221,-0.67L0.221,-0.5L0.333,-0.5L0.333,-0.458L0.221,-0.458L0.221,-0.105C0.221,-0.098 0.223,-0.091 0.225,-0.084C0.228,-0.078 0.232,-0.072 0.237,-0.067C0.241,-0.062 0.247,-0.059 0.253,-0.056C0.26,-0.053 0.267,-0.052 0.275,-0.052C0.286,-0.052 0.296,-0.055 0.305,-0.06C0.314,-0.066 0.322,-0.072 0.329,-0.081L0.354,-0.064C0.34,-0.041 0.323,-0.023 0.301,-0.009C0.279,0.004 0.252,0.011 0.22,0.011C0.203,0.011 0.189,0.008 0.176,0.002C0.164,-0.003 0.154,-0.011 0.146,-0.022C0.138,-0.032 0.132,-0.044 0.128,-0.058C0.124,-0.073 0.122,-0.088 0.122,-0.105L0.122,-0.458L0.035,-0.458L0.035,-0.476L0.122,-0.5L0.122,-0.642L0.193,-0.67Z" style="fill:rgb(200,80,0);fill-rule:nonzero;"/>
                </g>
                <g transform="matrix(33.333333,0,0,33.333333,1868.215617,157.153772)">
                    <path d="M0.193,-0.67L0.221,-0.67L0.221,-0.5L0.333,-0.5L0.333,-0.458L0.221,-0.458L0.221,-0.105C0.221,-0.098 0.223,-0.091 0.225,-0.084C0.228,-0.078 0.232,-0.072 0.237,-0.067C0.241,-0.062 0.247,-0.059 0.253,-0.056C0.26,-0.053 0.267,-0.052 0.275,-0.052C0.286,-0.052 0.296,-0.055 0.305,-0.06C0.314,-0.066 0.322,-0.072 0.329,-0.081L0.354,-0.064C0.34,-0.041 0.323,-0.023 0.301,-0.009C0.279,0.004 0.252,0.011 0.22,0.011C0.203,0.011 0.189,0.008 0.176,0.002C0.164,-0.003 0.154,-0.011 0.146,-0.022C0.138,-0.032 0.132,-0.044 0.128,-0.058C0.124,-0.073 0.122,-0.088 0.122,-0.105L0.122,-0.458L0.035,-0.458L0.035,-0.476L0.122,-0.5L0.122,-0.642L0.193,-0.67Z" style="fill:rgb(200,80,0);fill-rule:nonzero;"/>
                </g>
                <g transform="matrix(33.333333,0,0,33.333333,1881.448039,157.153772)">
                    <path d="M0.096,-0.481L0.166,-0.509L0.194,-0.509L0.194,-0L0.096,-0L0.096,-0.481ZM0.088,-0.691C0.088,-0.699 0.089,-0.707 0.092,-0.713C0.095,-0.72 0.099,-0.726 0.104,-0.731C0.11,-0.737 0.116,-0.741 0.123,-0.744C0.129,-0.747 0.137,-0.748 0.145,-0.748C0.152,-0.748 0.16,-0.747 0.167,-0.744C0.173,-0.741 0.179,-0.737 0.185,-0.731C0.19,-0.726 0.194,-0.72 0.197,-0.713C0.2,-0.707 0.201,-0.699 0.201,-0.691C0.201,-0.684 0.2,-0.676 0.197,-0.669C0.194,-0.663 0.19,-0.657 0.185,-0.651C0.179,-0.646 0.173,-0.642 0.167,-0.639C0.16,-0.636 0.152,-0.635 0.145,-0.635C0.137,-0.635 0.129,-0.636 0.123,-0.639C0.116,-0.642 0.11,-0.646 0.104,-0.651C0.099,-0.657 0.095,-0.663 0.092,-0.669C0.089,-0.676 0.088,-0.684 0.088,-0.691Z" style="fill:rgb(200,80,0);fill-rule:nonzero;"/>
                </g>
                <g transform="matrix(33.333333,0,0,33.333333,1891.083455,157.153772)">
                    <path d="M0.159,-0.509L0.188,-0.509L0.188,-0.408C0.218,-0.442 0.249,-0.467 0.282,-0.484C0.314,-0.501 0.347,-0.509 0.381,-0.509C0.398,-0.509 0.415,-0.505 0.43,-0.498C0.445,-0.49 0.458,-0.479 0.47,-0.465C0.481,-0.452 0.49,-0.436 0.497,-0.417C0.503,-0.399 0.506,-0.379 0.506,-0.358L0.506,-0L0.407,-0L0.407,-0.341C0.407,-0.358 0.405,-0.372 0.401,-0.385C0.397,-0.398 0.392,-0.408 0.385,-0.417C0.378,-0.425 0.369,-0.431 0.36,-0.436C0.35,-0.44 0.339,-0.442 0.328,-0.442C0.317,-0.442 0.306,-0.441 0.294,-0.437C0.283,-0.433 0.271,-0.428 0.259,-0.422C0.246,-0.416 0.234,-0.408 0.222,-0.399C0.21,-0.391 0.199,-0.381 0.188,-0.37L0.188,-0L0.088,-0L0.088,-0.481L0.159,-0.509Z" style="fill:rgb(200,80,0);fill-rule:nonzero;"/>
                </g>
                <g transform="matrix(33.333333,0,0,33.333333,1910.891398,157.153772)">
                    <path d="M0.559,-0.474L0.559,-0.432L0.464,-0.432C0.473,-0.418 0.481,-0.403 0.487,-0.386C0.493,-0.369 0.496,-0.352 0.496,-0.335C0.496,-0.309 0.49,-0.286 0.479,-0.265C0.468,-0.243 0.452,-0.225 0.431,-0.21C0.411,-0.195 0.387,-0.183 0.358,-0.175C0.33,-0.166 0.299,-0.162 0.265,-0.162C0.252,-0.162 0.239,-0.163 0.226,-0.165C0.213,-0.167 0.201,-0.17 0.191,-0.173C0.182,-0.165 0.174,-0.156 0.167,-0.146C0.161,-0.135 0.158,-0.125 0.158,-0.115C0.158,-0.105 0.163,-0.097 0.174,-0.091C0.185,-0.085 0.201,-0.082 0.221,-0.081L0.405,-0.072C0.435,-0.071 0.46,-0.067 0.479,-0.062C0.499,-0.056 0.515,-0.048 0.526,-0.039C0.538,-0.029 0.546,-0.018 0.551,-0.005C0.556,0.008 0.559,0.023 0.559,0.039C0.559,0.068 0.552,0.094 0.538,0.118C0.525,0.142 0.505,0.162 0.48,0.178C0.455,0.195 0.424,0.208 0.387,0.217C0.35,0.226 0.309,0.23 0.263,0.23C0.221,0.23 0.185,0.228 0.154,0.223C0.123,0.218 0.098,0.211 0.077,0.202C0.057,0.193 0.041,0.183 0.031,0.17C0.021,0.158 0.016,0.144 0.016,0.128C0.016,0.114 0.02,0.101 0.026,0.089C0.033,0.076 0.042,0.064 0.053,0.052C0.063,0.041 0.075,0.03 0.088,0.019C0.101,0.008 0.114,-0.002 0.127,-0.012C0.118,-0.015 0.109,-0.018 0.101,-0.022C0.093,-0.026 0.086,-0.031 0.081,-0.036C0.075,-0.041 0.07,-0.047 0.067,-0.053C0.064,-0.059 0.062,-0.065 0.062,-0.072C0.062,-0.082 0.065,-0.093 0.07,-0.104C0.075,-0.115 0.083,-0.125 0.092,-0.135C0.101,-0.145 0.112,-0.154 0.124,-0.162C0.136,-0.171 0.15,-0.177 0.164,-0.182C0.13,-0.196 0.104,-0.216 0.085,-0.242C0.066,-0.267 0.056,-0.297 0.056,-0.33C0.056,-0.354 0.062,-0.378 0.073,-0.399C0.084,-0.421 0.1,-0.44 0.12,-0.457C0.139,-0.473 0.163,-0.486 0.189,-0.495C0.216,-0.505 0.244,-0.509 0.275,-0.509C0.29,-0.509 0.305,-0.508 0.32,-0.506C0.334,-0.504 0.348,-0.502 0.36,-0.499C0.373,-0.495 0.384,-0.492 0.393,-0.487C0.403,-0.483 0.41,-0.479 0.416,-0.474L0.559,-0.474ZM0.158,-0.004C0.15,0.002 0.144,0.008 0.138,0.015C0.133,0.021 0.128,0.029 0.124,0.036C0.12,0.044 0.117,0.051 0.115,0.059C0.113,0.066 0.112,0.074 0.112,0.081C0.112,0.092 0.116,0.102 0.124,0.112C0.132,0.122 0.144,0.131 0.159,0.139C0.175,0.147 0.194,0.153 0.218,0.158C0.242,0.162 0.269,0.165 0.3,0.165C0.333,0.165 0.363,0.162 0.389,0.157C0.416,0.152 0.438,0.145 0.456,0.136C0.475,0.127 0.489,0.118 0.498,0.107C0.508,0.097 0.513,0.086 0.513,0.075C0.513,0.064 0.51,0.055 0.504,0.046C0.498,0.038 0.49,0.032 0.479,0.026C0.469,0.021 0.456,0.017 0.44,0.015C0.425,0.012 0.408,0.011 0.389,0.011C0.365,0.011 0.34,0.01 0.316,0.009C0.292,0.008 0.269,0.007 0.248,0.005C0.226,0.004 0.208,0.002 0.192,0C0.176,-0.002 0.165,-0.003 0.158,-0.004ZM0.281,-0.188C0.295,-0.188 0.309,-0.191 0.322,-0.198C0.335,-0.204 0.346,-0.213 0.356,-0.224C0.366,-0.235 0.374,-0.248 0.38,-0.262C0.386,-0.277 0.389,-0.293 0.389,-0.311C0.389,-0.335 0.385,-0.358 0.379,-0.379C0.372,-0.4 0.363,-0.418 0.352,-0.433C0.34,-0.449 0.327,-0.461 0.312,-0.47C0.296,-0.479 0.28,-0.483 0.263,-0.483C0.247,-0.483 0.232,-0.479 0.22,-0.473C0.208,-0.466 0.198,-0.456 0.19,-0.444C0.182,-0.432 0.176,-0.418 0.173,-0.401C0.169,-0.385 0.167,-0.367 0.167,-0.348C0.167,-0.326 0.17,-0.305 0.175,-0.285C0.181,-0.266 0.189,-0.249 0.199,-0.234C0.209,-0.22 0.221,-0.208 0.235,-0.2C0.249,-0.192 0.264,-0.188 0.281,-0.188Z" style="fill:rgb(200,80,0);fill-rule:nonzero;"/>
                </g>
                <g transform="matrix(33.333333,0,0,33.333333,1937.795695,157.153772)">
                    <path d="M0.193,-0.67L0.221,-0.67L0.221,-0.5L0.333,-0.5L0.333,-0.458L0.221,-0.458L0.221,-0.105C0.221,-0.098 0.223,-0.091 0.225,-0.084C0.228,-0.078 0.232,-0.072 0.237,-0.067C0.241,-0.062 0.247,-0.059 0.253,-0.056C0.26,-0.053 0.267,-0.052 0.275,-0.052C0.286,-0.052 0.296,-0.055 0.305,-0.06C0.314,-0.066 0.322,-0.072 0.329,-0.081L0.354,-0.064C0.34,-0.041 0.323,-0.023 0.301,-0.009C0.279,0.004 0.252,0.011 0.22,0.011C0.203,0.011 0.189,0.008 0.176,0.002C0.164,-0.003 0.154,-0.011 0.146,-0.022C0.138,-0.032 0.132,-0.044 0.128,-0.058C0.124,-0.073 0.122,-0.088 0.122,-0.105L0.122,-0.458L0.035,-0.458L0.035,-0.476L0.122,-0.5L0.122,-0.642L0.193,-0.67Z" style="fill:rgb(200,80,0);fill-rule:nonzero;"/>
                </g>
                <g transform="matrix(33.333333,0,0,33.333333,1951.028117,157.153772)">
                    <path d="M0.188,-0.408C0.217,-0.442 0.248,-0.467 0.281,-0.484C0.314,-0.501 0.347,-0.509 0.381,-0.509C0.398,-0.509 0.415,-0.505 0.43,-0.498C0.445,-0.49 0.458,-0.479 0.47,-0.465C0.481,-0.452 0.49,-0.436 0.497,-0.417C0.503,-0.399 0.506,-0.379 0.506,-0.358L0.506,-0L0.407,-0L0.407,-0.341C0.407,-0.375 0.4,-0.4 0.385,-0.417C0.37,-0.434 0.351,-0.442 0.327,-0.442C0.317,-0.442 0.306,-0.441 0.294,-0.437C0.282,-0.433 0.27,-0.428 0.258,-0.422C0.246,-0.416 0.234,-0.408 0.222,-0.399C0.21,-0.391 0.199,-0.381 0.188,-0.37L0.188,-0L0.088,-0L0.088,-0.727L0.159,-0.755L0.188,-0.755L0.188,-0.408Z" style="fill:rgb(200,80,0);fill-rule:nonzero;"/>
                </g>
                <g transform="matrix(33.333333,0,0,33.333333,1970.83606,157.153772)">
                    <path d="M0.299,0.011C0.265,0.011 0.234,0.004 0.204,-0.008C0.174,-0.021 0.148,-0.038 0.126,-0.06C0.104,-0.082 0.086,-0.108 0.073,-0.137C0.061,-0.166 0.054,-0.198 0.054,-0.231C0.054,-0.271 0.06,-0.308 0.072,-0.342C0.083,-0.376 0.1,-0.405 0.122,-0.43C0.143,-0.455 0.169,-0.474 0.199,-0.488C0.229,-0.502 0.263,-0.509 0.3,-0.509C0.332,-0.509 0.362,-0.503 0.39,-0.492C0.417,-0.48 0.441,-0.465 0.46,-0.446C0.48,-0.426 0.495,-0.404 0.506,-0.378C0.517,-0.353 0.522,-0.326 0.522,-0.299L0.15,-0.299C0.15,-0.265 0.154,-0.234 0.163,-0.206C0.171,-0.177 0.184,-0.152 0.199,-0.131C0.215,-0.111 0.233,-0.094 0.255,-0.083C0.276,-0.071 0.3,-0.065 0.326,-0.065C0.347,-0.065 0.368,-0.068 0.388,-0.075C0.408,-0.082 0.426,-0.092 0.442,-0.103C0.458,-0.114 0.472,-0.127 0.483,-0.142C0.494,-0.157 0.502,-0.172 0.507,-0.188L0.536,-0.175C0.528,-0.149 0.517,-0.125 0.501,-0.103C0.485,-0.08 0.466,-0.06 0.445,-0.044C0.424,-0.027 0.401,-0.014 0.375,-0.004C0.35,0.006 0.325,0.011 0.299,0.011ZM0.398,-0.339C0.398,-0.358 0.395,-0.375 0.388,-0.392C0.381,-0.408 0.372,-0.422 0.36,-0.434C0.349,-0.446 0.335,-0.455 0.319,-0.462C0.304,-0.469 0.287,-0.472 0.269,-0.472C0.254,-0.472 0.24,-0.469 0.226,-0.462C0.212,-0.455 0.2,-0.446 0.189,-0.434C0.179,-0.422 0.17,-0.408 0.163,-0.392C0.156,-0.376 0.152,-0.358 0.15,-0.339L0.398,-0.339Z" style="fill:rgb(200,80,0);fill-rule:nonzero;"/>
                </g>
                <g transform="matrix(33.333333,0,0,33.333333,1998.602987,157.153772)">
                    <path d="M0.088,-0.647L0.349,-0.647C0.383,-0.647 0.415,-0.644 0.444,-0.636C0.472,-0.628 0.497,-0.618 0.518,-0.604C0.538,-0.59 0.555,-0.573 0.566,-0.553C0.577,-0.534 0.583,-0.512 0.583,-0.489C0.583,-0.471 0.581,-0.455 0.578,-0.441C0.574,-0.427 0.568,-0.414 0.559,-0.402C0.549,-0.39 0.537,-0.379 0.522,-0.368C0.507,-0.358 0.488,-0.347 0.465,-0.336L0.465,-0.334C0.488,-0.33 0.509,-0.324 0.527,-0.315C0.546,-0.307 0.562,-0.295 0.575,-0.282C0.588,-0.268 0.598,-0.253 0.605,-0.235C0.613,-0.217 0.616,-0.197 0.616,-0.175C0.616,-0.151 0.611,-0.128 0.6,-0.107C0.59,-0.085 0.575,-0.067 0.555,-0.051C0.535,-0.035 0.511,-0.023 0.484,-0.014C0.456,-0.005 0.425,-0 0.39,-0L0.088,-0L0.088,-0.647ZM0.197,-0.356L0.335,-0.356C0.357,-0.356 0.377,-0.359 0.394,-0.365C0.41,-0.371 0.425,-0.38 0.437,-0.391C0.448,-0.402 0.457,-0.415 0.463,-0.43C0.469,-0.445 0.472,-0.461 0.472,-0.479C0.472,-0.498 0.469,-0.515 0.461,-0.531C0.454,-0.546 0.443,-0.559 0.428,-0.57C0.413,-0.581 0.394,-0.59 0.37,-0.596C0.347,-0.602 0.319,-0.604 0.287,-0.604L0.197,-0.604L0.197,-0.356ZM0.197,-0.047L0.314,-0.047C0.346,-0.047 0.373,-0.05 0.397,-0.056C0.42,-0.062 0.439,-0.071 0.454,-0.082C0.469,-0.093 0.481,-0.106 0.488,-0.121C0.495,-0.136 0.499,-0.153 0.499,-0.171C0.499,-0.192 0.496,-0.211 0.489,-0.229C0.483,-0.246 0.472,-0.261 0.457,-0.274C0.442,-0.287 0.423,-0.297 0.399,-0.305C0.375,-0.312 0.346,-0.316 0.311,-0.316L0.197,-0.316L0.197,-0.047Z" style="fill:rgb(200,80,0);fill-rule:nonzero;"/>
                </g>
                <g transform="matrix(33.333333,0,0,33.333333,2020.640747,157.153772)">
                    <path d="M0.096,-0.481L0.166,-0.509L0.194,-0.509L0.194,-0L0.096,-0L0.096,-0.481ZM0.088,-0.691C0.088,-0.699 0.089,-0.707 0.092,-0.713C0.095,-0.72 0.099,-0.726 0.104,-0.731C0.11,-0.737 0.116,-0.741 0.123,-0.744C0.129,-0.747 0.137,-0.748 0.145,-0.748C0.152,-0.748 0.16,-0.747 0.167,-0.744C0.173,-0.741 0.179,-0.737 0.185,-0.731C0.19,-0.726 0.194,-0.72 0.197,-0.713C0.2,-0.707 0.201,-0.699 0.201,-0.691C0.201,-0.684 0.2,-0.676 0.197,-0.669C0.194,-0.663 0.19,-0.657 0.185,-0.651C0.179,-0.646 0.173,-0.642 0.167,-0.639C0.16,-0.636 0.152,-0.635 0.145,-0.635C0.137,-0.635 0.129,-0.636 0.123,-0.639C0.116,-0.642 0.11,-0.646 0.104,-0.651C0.099,-0.657 0.095,-0.663 0.092,-0.669C0.089,-0.676 0.088,-0.684 0.088,-0.691Z" style="fill:rgb(200,80,0);fill-rule:nonzero;"/>
                </g>
                <g transform="matrix(33.333333,0,0,33.333333,2030.276164,157.153772)">
                    <path d="M0.559,-0.474L0.559,-0.432L0.464,-0.432C0.473,-0.418 0.481,-0.403 0.487,-0.386C0.493,-0.369 0.496,-0.352 0.496,-0.335C0.496,-0.309 0.49,-0.286 0.479,-0.265C0.468,-0.243 0.452,-0.225 0.431,-0.21C0.411,-0.195 0.387,-0.183 0.358,-0.175C0.33,-0.166 0.299,-0.162 0.265,-0.162C0.252,-0.162 0.239,-0.163 0.226,-0.165C0.213,-0.167 0.201,-0.17 0.191,-0.173C0.182,-0.165 0.174,-0.156 0.167,-0.146C0.161,-0.135 0.158,-0.125 0.158,-0.115C0.158,-0.105 0.163,-0.097 0.174,-0.091C0.185,-0.085 0.201,-0.082 0.221,-0.081L0.405,-0.072C0.435,-0.071 0.46,-0.067 0.479,-0.062C0.499,-0.056 0.515,-0.048 0.526,-0.039C0.538,-0.029 0.546,-0.018 0.551,-0.005C0.556,0.008 0.559,0.023 0.559,0.039C0.559,0.068 0.552,0.094 0.538,0.118C0.525,0.142 0.505,0.162 0.48,0.178C0.455,0.195 0.424,0.208 0.387,0.217C0.35,0.226 0.309,0.23 0.263,0.23C0.221,0.23 0.185,0.228 0.154,0.223C0.123,0.218 0.098,0.211 0.077,0.202C0.057,0.193 0.041,0.183 0.031,0.17C0.021,0.158 0.016,0.144 0.016,0.128C0.016,0.114 0.02,0.101 0.026,0.089C0.033,0.076 0.042,0.064 0.053,0.052C0.063,0.041 0.075,0.03 0.088,0.019C0.101,0.008 0.114,-0.002 0.127,-0.012C0.118,-0.015 0.109,-0.018 0.101,-0.022C0.093,-0.026 0.086,-0.031 0.081,-0.036C0.075,-0.041 0.07,-0.047 0.067,-0.053C0.064,-0.059 0.062,-0.065 0.062,-0.072C0.062,-0.082 0.065,-0.093 0.07,-0.104C0.075,-0.115 0.083,-0.125 0.092,-0.135C0.101,-0.145 0.112,-0.154 0.124,-0.162C0.136,-0.171 0.15,-0.177 0.164,-0.182C0.13,-0.196 0.104,-0.216 0.085,-0.242C0.066,-0.267 0.056,-0.297 0.056,-0.33C0.056,-0.354 0.062,-0.378 0.073,-0.399C0.084,-0.421 0.1,-0.44 0.12,-0.457C0.139,-0.473 0.163,-0.486 0.189,-0.495C0.216,-0.505 0.244,-0.509 0.275,-0.509C0.29,-0.509 0.305,-0.508 0.32,-0.506C0.334,-0.504 0.348,-0.502 0.36,-0.499C0.373,-0.495 0.384,-0.492 0.393,-0.487C0.403,-0.483 0.41,-0.479 0.416,-0.474L0.559,-0.474ZM0.158,-0.004C0.15,0.002 0.144,0.008 0.138,0.015C0.133,0.021 0.128,0.029 0.124,0.036C0.12,0.044 0.117,0.051 0.115,0.059C0.113,0.066 0.112,0.074 0.112,0.081C0.112,0.092 0.116,0.102 0.124,0.112C0.132,0.122 0.144,0.131 0.159,0.139C0.175,0.147 0.194,0.153 0.218,0.158C0.242,0.162 0.269,0.165 0.3,0.165C0.333,0.165 0.363,0.162 0.389,0.157C0.416,0.152 0.438,0.145 0.456,0.136C0.475,0.127 0.489,0.118 0.498,0.107C0.508,0.097 0.513,0.086 0.513,0.075C0.513,0.064 0.51,0.055 0.504,0.046C0.498,0.038 0.49,0.032 0.479,0.026C0.469,0.021 0.456,0.017 0.44,0.015C0.425,0.012 0.408,0.011 0.389,0.011C0.365,0.011 0.34,0.01 0.316,0.009C0.292,0.008 0.269,0.007 0.248,0.005C0.226,0.004 0.208,0.002 0.192,0C0.176,-0.002 0.165,-0.003 0.158,-0.004ZM0.281,-0.188C0.295,-0.188 0.309,-0.191 0.322,-0.198C0.335,-0.204 0.346,-0.213 0.356,-0.224C0.366,-0.235 0.374,-0.248 0.38,-0.262C0.386,-0.277 0.389,-0.293 0.389,-0.311C0.389,-0.335 0.385,-0.358 0.379,-0.379C0.372,-0.4 0.363,-0.418 0.352,-0.433C0.34,-0.449 0.327,-0.461 0.312,-0.47C0.296,-0.479 0.28,-0.483 0.263,-0.483C0.247,-0.483 0.232,-0.479 0.22,-0.473C0.208,-0.466 0.198,-0.456 0.19,-0.444C0.182,-0.432 0.176,-0.418 0.173,-0.401C0.169,-0.385 0.167,-0.367 0.167,-0.348C0.167,-0.326 0.17,-0.305 0.175,-0.285C0.181,-0.266 0.189,-0.249 0.199,-0.234C0.209,-0.22 0.221,-0.208 0.235,-0.2C0.249,-0.192 0.264,-0.188 0.281,-0.188Z" style="fill:rgb(200,80,0);fill-rule:nonzero;"/>
                </g>
                <g transform="matrix(33.333333,0,0,33.333333,2057.180461,157.153772)">
                    <path d="M0.096,-0.481L0.166,-0.509L0.194,-0.509L0.194,-0L0.096,-0L0.096,-0.481ZM0.088,-0.691C0.088,-0.699 0.089,-0.707 0.092,-0.713C0.095,-0.72 0.099,-0.726 0.104,-0.731C0.11,-0.737 0.116,-0.741 0.123,-0.744C0.129,-0.747 0.137,-0.748 0.145,-0.748C0.152,-0.748 0.16,-0.747 0.167,-0.744C0.173,-0.741 0.179,-0.737 0.185,-0.731C0.19,-0.726 0.194,-0.72 0.197,-0.713C0.2,-0.707 0.201,-0.699 0.201,-0.691C0.201,-0.684 0.2,-0.676 0.197,-0.669C0.194,-0.663 0.19,-0.657 0.185,-0.651C0.179,-0.646 0.173,-0.642 0.167,-0.639C0.16,-0.636 0.152,-0.635 0.145,-0.635C0.137,-0.635 0.129,-0.636 0.123,-0.639C0.116,-0.642 0.11,-0.646 0.104,-0.651C0.099,-0.657 0.095,-0.663 0.092,-0.669C0.089,-0.676 0.088,-0.684 0.088,-0.691Z" style="fill:rgb(200,80,0);fill-rule:nonzero;"/>
                </g>
                <g transform="matrix(33.333333,0,0,33.333333,2066.815877,157.153772)">
                    <path d="M0.159,-0.509L0.188,-0.509L0.188,-0.408C0.218,-0.442 0.249,-0.467 0.282,-0.484C0.314,-0.501 0.347,-0.509 0.381,-0.509C0.398,-0.509 0.415,-0.505 0.43,-0.498C0.445,-0.49 0.458,-0.479 0.47,-0.465C0.481,-0.452 0.49,-0.436 0.497,-0.417C0.503,-0.399 0.506,-0.379 0.506,-0.358L0.506,-0L0.407,-0L0.407,-0.341C0.407,-0.358 0.405,-0.372 0.401,-0.385C0.397,-0.398 0.392,-0.408 0.385,-0.417C0.378,-0.425 0.369,-0.431 0.36,-0.436C0.35,-0.44 0.339,-0.442 0.328,-0.442C0.317,-0.442 0.306,-0.441 0.294,-0.437C0.283,-0.433 0.271,-0.428 0.259,-0.422C0.246,-0.416 0.234,-0.408 0.222,-0.399C0.21,-0.391 0.199,-0.381 0.188,-0.37L0.188,-0L0.088,-0L0.088,-0.481L0.159,-0.509Z" style="fill:rgb(200,80,0);fill-rule:nonzero;"/>
                </g>
                <g transform="matrix(33.333333,0,0,33.333333,2094.761841,157.153772)">
                    <path d="M0.193,-0.67L0.221,-0.67L0.221,-0.5L0.333,-0.5L0.333,-0.458L0.221,-0.458L0.221,-0.105C0.221,-0.098 0.223,-0.091 0.225,-0.084C0.228,-0.078 0.232,-0.072 0.237,-0.067C0.241,-0.062 0.247,-0.059 0.253,-0.056C0.26,-0.053 0.267,-0.052 0.275,-0.052C0.286,-0.052 0.296,-0.055 0.305,-0.06C0.314,-0.066 0.322,-0.072 0.329,-0.081L0.354,-0.064C0.34,-0.041 0.323,-0.023 0.301,-0.009C0.279,0.004 0.252,0.011 0.22,0.011C0.203,0.011 0.189,0.008 0.176,0.002C0.164,-0.003 0.154,-0.011 0.146,-0.022C0.138,-0.032 0.132,-0.044 0.128,-0.058C0.124,-0.073 0.122,-0.088 0.122,-0.105L0.122,-0.458L0.035,-0.458L0.035,-0.476L0.122,-0.5L0.122,-0.642L0.193,-0.67Z" style="fill:rgb(200,80,0);fill-rule:nonzero;"/>
                </g>
                <g transform="matrix(33.333333,0,0,33.333333,2107.994263,157.153772)">
                    <path d="M0.188,-0.408C0.217,-0.442 0.248,-0.467 0.281,-0.484C0.314,-0.501 0.347,-0.509 0.381,-0.509C0.398,-0.509 0.415,-0.505 0.43,-0.498C0.445,-0.49 0.458,-0.479 0.47,-0.465C0.481,-0.452 0.49,-0.436 0.497,-0.417C0.503,-0.399 0.506,-0.379 0.506,-0.358L0.506,-0L0.407,-0L0.407,-0.341C0.407,-0.375 0.4,-0.4 0.385,-0.417C0.37,-0.434 0.351,-0.442 0.327,-0.442C0.317,-0.442 0.306,-0.441 0.294,-0.437C0.282,-0.433 0.27,-0.428 0.258,-0.422C0.246,-0.416 0.234,-0.408 0.222,-0.399C0.21,-0.391 0.199,-0.381 0.188,-0.37L0.188,-0L0.088,-0L0.088,-0.727L0.159,-0.755L0.188,-0.755L0.188,-0.408Z" style="fill:rgb(200,80,0);fill-rule:nonzero;"/>
                </g>
                <g transform="matrix(33.333333,0,0,33.333333,2127.802205,157.153772)">
                    <path d="M0.299,0.011C0.265,0.011 0.234,0.004 0.204,-0.008C0.174,-0.021 0.148,-0.038 0.126,-0.06C0.104,-0.082 0.086,-0.108 0.073,-0.137C0.061,-0.166 0.054,-0.198 0.054,-0.231C0.054,-0.271 0.06,-0.308 0.072,-0.342C0.083,-0.376 0.1,-0.405 0.122,-0.43C0.143,-0.455 0.169,-0.474 0.199,-0.488C0.229,-0.502 0.263,-0.509 0.3,-0.509C0.332,-0.509 0.362,-0.503 0.39,-0.492C0.417,-0.48 0.441,-0.465 0.46,-0.446C0.48,-0.426 0.495,-0.404 0.506,-0.378C0.517,-0.353 0.522,-0.326 0.522,-0.299L0.15,-0.299C0.15,-0.265 0.154,-0.234 0.163,-0.206C0.171,-0.177 0.184,-0.152 0.199,-0.131C0.215,-0.111 0.233,-0.094 0.255,-0.083C0.276,-0.071 0.3,-0.065 0.326,-0.065C0.347,-0.065 0.368,-0.068 0.388,-0.075C0.408,-0.082 0.426,-0.092 0.442,-0.103C0.458,-0.114 0.472,-0.127 0.483,-0.142C0.494,-0.157 0.502,-0.172 0.507,-0.188L0.536,-0.175C0.528,-0.149 0.517,-0.125 0.501,-0.103C0.485,-0.08 0.466,-0.06 0.445,-0.044C0.424,-0.027 0.401,-0.014 0.375,-0.004C0.35,0.006 0.325,0.011 0.299,0.011ZM0.398,-0.339C0.398,-0.358 0.395,-0.375 0.388,-0.392C0.381,-0.408 0.372,-0.422 0.36,-0.434C0.349,-0.446 0.335,-0.455 0.319,-0.462C0.304,-0.469 0.287,-0.472 0.269,-0.472C0.254,-0.472 0.24,-0.469 0.226,-0.462C0.212,-0.455 0.2,-0.446 0.189,-0.434C0.179,-0.422 0.17,-0.408 0.163,-0.392C0.156,-0.376 0.152,-0.358 0.15,-0.339L0.398,-0.339Z" style="fill:rgb(200,80,0);fill-rule:nonzero;"/>
                </g>
                <g transform="matrix(33.333333,0,0,33.333333,2155.569133,157.153772)">
                    <path d="M0.3,-0.026C0.316,-0.026 0.332,-0.028 0.347,-0.032C0.363,-0.037 0.377,-0.043 0.389,-0.052C0.402,-0.061 0.411,-0.071 0.419,-0.084C0.426,-0.096 0.43,-0.111 0.43,-0.127C0.43,-0.147 0.425,-0.165 0.415,-0.18C0.405,-0.196 0.391,-0.21 0.375,-0.223C0.358,-0.236 0.339,-0.248 0.318,-0.259C0.296,-0.271 0.275,-0.282 0.252,-0.293C0.23,-0.305 0.209,-0.317 0.187,-0.329C0.166,-0.342 0.147,-0.356 0.13,-0.371C0.114,-0.387 0.1,-0.404 0.09,-0.423C0.08,-0.442 0.075,-0.464 0.075,-0.489C0.075,-0.514 0.079,-0.536 0.089,-0.558C0.098,-0.579 0.111,-0.597 0.129,-0.613C0.147,-0.628 0.169,-0.64 0.196,-0.649C0.222,-0.658 0.252,-0.662 0.286,-0.662C0.316,-0.662 0.344,-0.659 0.368,-0.652C0.392,-0.646 0.413,-0.636 0.431,-0.624C0.449,-0.611 0.465,-0.595 0.478,-0.577C0.49,-0.558 0.5,-0.537 0.508,-0.512L0.453,-0.487C0.446,-0.507 0.438,-0.525 0.428,-0.541C0.418,-0.558 0.406,-0.572 0.392,-0.583C0.378,-0.595 0.361,-0.604 0.343,-0.611C0.325,-0.617 0.304,-0.62 0.281,-0.62C0.26,-0.62 0.242,-0.617 0.227,-0.612C0.212,-0.606 0.199,-0.598 0.189,-0.589C0.178,-0.58 0.171,-0.569 0.166,-0.558C0.161,-0.546 0.158,-0.535 0.158,-0.522C0.158,-0.506 0.163,-0.49 0.174,-0.476C0.184,-0.462 0.198,-0.448 0.215,-0.436C0.233,-0.423 0.252,-0.411 0.274,-0.399C0.296,-0.388 0.319,-0.376 0.341,-0.364C0.364,-0.352 0.386,-0.339 0.408,-0.326C0.43,-0.313 0.45,-0.299 0.467,-0.283C0.485,-0.268 0.498,-0.251 0.509,-0.233C0.519,-0.214 0.524,-0.194 0.524,-0.171C0.524,-0.145 0.52,-0.121 0.51,-0.098C0.5,-0.076 0.485,-0.056 0.466,-0.039C0.446,-0.023 0.422,-0.009 0.393,0C0.364,0.01 0.33,0.015 0.292,0.015C0.261,0.015 0.233,0.012 0.208,0.005C0.184,-0.002 0.163,-0.012 0.144,-0.025C0.125,-0.038 0.109,-0.054 0.096,-0.073C0.082,-0.091 0.071,-0.113 0.063,-0.137L0.121,-0.161C0.128,-0.139 0.137,-0.121 0.149,-0.104C0.16,-0.087 0.174,-0.073 0.189,-0.062C0.204,-0.05 0.221,-0.041 0.24,-0.035C0.259,-0.029 0.279,-0.026 0.3,-0.026Z" style="fill:rgb(200,80,0);fill-rule:nonzero;"/>
                </g>
                <g transform="matrix(33.333333,0,0,33.333333,2175.165487,157.153772)">
                    <path d="M0.159,-0.509L0.188,-0.509L0.188,-0.406C0.2,-0.419 0.215,-0.433 0.23,-0.445C0.246,-0.458 0.263,-0.469 0.28,-0.478C0.297,-0.488 0.314,-0.495 0.331,-0.501C0.347,-0.507 0.364,-0.509 0.379,-0.509C0.394,-0.509 0.408,-0.507 0.424,-0.501C0.439,-0.496 0.453,-0.489 0.466,-0.479C0.478,-0.47 0.49,-0.459 0.499,-0.446C0.508,-0.433 0.514,-0.419 0.517,-0.404C0.525,-0.418 0.537,-0.432 0.551,-0.445C0.566,-0.458 0.582,-0.469 0.599,-0.479C0.617,-0.488 0.635,-0.495 0.655,-0.501C0.675,-0.507 0.694,-0.509 0.713,-0.509C0.732,-0.509 0.749,-0.505 0.766,-0.497C0.782,-0.489 0.797,-0.477 0.809,-0.463C0.821,-0.449 0.831,-0.432 0.838,-0.413C0.846,-0.394 0.849,-0.374 0.849,-0.353L0.849,-0L0.75,-0L0.75,-0.339C0.75,-0.353 0.748,-0.366 0.743,-0.379C0.738,-0.391 0.732,-0.402 0.724,-0.412C0.715,-0.421 0.706,-0.429 0.695,-0.434C0.684,-0.44 0.673,-0.442 0.661,-0.442C0.647,-0.442 0.633,-0.441 0.619,-0.437C0.605,-0.433 0.591,-0.428 0.579,-0.421C0.566,-0.415 0.554,-0.407 0.544,-0.399C0.534,-0.39 0.525,-0.381 0.519,-0.371L0.519,-0L0.42,-0L0.42,-0.339C0.42,-0.353 0.417,-0.366 0.413,-0.379C0.408,-0.391 0.401,-0.402 0.393,-0.412C0.385,-0.421 0.375,-0.429 0.364,-0.434C0.353,-0.44 0.342,-0.442 0.33,-0.442C0.317,-0.442 0.304,-0.44 0.29,-0.437C0.277,-0.433 0.264,-0.427 0.251,-0.421C0.238,-0.414 0.226,-0.407 0.215,-0.398C0.204,-0.39 0.195,-0.381 0.188,-0.371L0.188,-0L0.088,-0L0.088,-0.481L0.159,-0.509Z" style="fill:rgb(200,80,0);fill-rule:nonzero;"/>
                </g>
                <g transform="matrix(33.333333,0,0,33.333333,2206.399211,157.153772)">
                    <path d="M0.399,-0C0.386,-0.007 0.375,-0.016 0.366,-0.028C0.357,-0.039 0.353,-0.053 0.353,-0.068C0.341,-0.06 0.329,-0.05 0.318,-0.041C0.307,-0.032 0.295,-0.023 0.281,-0.015C0.268,-0.008 0.254,-0.001 0.238,0.003C0.221,0.008 0.203,0.011 0.182,0.011C0.162,0.011 0.144,0.008 0.129,0.001C0.113,-0.005 0.1,-0.014 0.089,-0.025C0.078,-0.036 0.069,-0.049 0.063,-0.064C0.057,-0.08 0.054,-0.096 0.054,-0.114C0.054,-0.135 0.058,-0.155 0.067,-0.172C0.075,-0.189 0.087,-0.205 0.102,-0.218C0.117,-0.232 0.134,-0.244 0.153,-0.254C0.173,-0.265 0.194,-0.274 0.216,-0.282C0.238,-0.291 0.261,-0.298 0.284,-0.305C0.308,-0.311 0.33,-0.317 0.353,-0.323L0.353,-0.354C0.353,-0.377 0.351,-0.396 0.348,-0.412C0.344,-0.427 0.339,-0.44 0.333,-0.449C0.326,-0.459 0.317,-0.466 0.306,-0.47C0.296,-0.474 0.283,-0.476 0.269,-0.476C0.255,-0.476 0.242,-0.473 0.23,-0.468C0.218,-0.462 0.208,-0.455 0.199,-0.446C0.19,-0.436 0.183,-0.425 0.177,-0.413C0.171,-0.4 0.167,-0.387 0.166,-0.373L0.075,-0.373C0.077,-0.395 0.085,-0.414 0.097,-0.431C0.109,-0.448 0.125,-0.462 0.143,-0.473C0.162,-0.485 0.183,-0.494 0.206,-0.5C0.23,-0.506 0.254,-0.509 0.28,-0.509C0.312,-0.509 0.34,-0.506 0.362,-0.5C0.384,-0.493 0.402,-0.485 0.415,-0.473C0.428,-0.462 0.438,-0.448 0.444,-0.431C0.449,-0.415 0.452,-0.397 0.452,-0.377L0.452,-0.068C0.452,-0.053 0.457,-0.039 0.466,-0.028C0.475,-0.016 0.486,-0.007 0.499,-0L0.399,-0ZM0.353,-0.291C0.338,-0.286 0.323,-0.281 0.308,-0.275C0.293,-0.27 0.278,-0.263 0.263,-0.256C0.249,-0.248 0.235,-0.24 0.221,-0.232C0.208,-0.223 0.196,-0.214 0.186,-0.205C0.176,-0.195 0.168,-0.185 0.162,-0.174C0.156,-0.163 0.153,-0.152 0.153,-0.14C0.153,-0.128 0.156,-0.116 0.16,-0.105C0.165,-0.094 0.171,-0.085 0.178,-0.076C0.186,-0.068 0.194,-0.062 0.204,-0.057C0.214,-0.052 0.224,-0.05 0.234,-0.05C0.245,-0.05 0.256,-0.051 0.266,-0.054C0.276,-0.057 0.286,-0.061 0.295,-0.066C0.305,-0.071 0.314,-0.077 0.324,-0.083C0.333,-0.09 0.343,-0.097 0.353,-0.104L0.353,-0.291Z" style="fill:rgb(200,80,0);fill-rule:nonzero;"/>
                </g>
                <g transform="matrix(33.333333,0,0,33.333333,2223.895955,157.153772)">
                    <path d="M0.188,-0L0.088,-0L0.088,-0.727L0.159,-0.755L0.188,-0.755L0.188,-0Z" style="fill:rgb(200,80,0);fill-rule:nonzero;"/>
                </g>
                <g transform="matrix(33.333333,0,0,33.333333,2233.059367,157.153772)">
                    <path d="M0.188,-0L0.088,-0L0.088,-0.727L0.159,-0.755L0.188,-0.755L0.188,-0Z" style="fill:rgb(200,80,0);fill-rule:nonzero;"/>
                </g>
                <g transform="matrix(33.333333,0,0,33.333333,2242.222778,157.153772)">
                    <path d="M0.107,-0.088C0.114,-0.088 0.121,-0.087 0.127,-0.084C0.134,-0.081 0.14,-0.077 0.145,-0.073C0.149,-0.068 0.153,-0.063 0.156,-0.056C0.159,-0.05 0.16,-0.043 0.16,-0.037C0.16,-0.029 0.159,-0.022 0.156,-0.016C0.153,-0.01 0.149,-0.004 0.145,0C0.14,0.005 0.134,0.009 0.127,0.011C0.121,0.014 0.114,0.015 0.107,0.015C0.099,0.015 0.092,0.014 0.086,0.011C0.079,0.009 0.074,0.005 0.069,0C0.064,-0.004 0.06,-0.01 0.057,-0.016C0.055,-0.022 0.053,-0.029 0.053,-0.037C0.053,-0.043 0.055,-0.05 0.057,-0.056C0.06,-0.063 0.064,-0.068 0.069,-0.073C0.074,-0.077 0.079,-0.081 0.086,-0.084C0.092,-0.087 0.099,-0.088 0.107,-0.088Z" style="fill:rgb(200,80,0);fill-rule:nonzero;"/>
                </g>
                <g transform="matrix(33.333333,0,0,33.333333,2255.927205,157.153772)">
                    <path d="M0.088,-0.647L0.312,-0.647C0.351,-0.647 0.385,-0.643 0.415,-0.635C0.444,-0.627 0.468,-0.615 0.488,-0.6C0.507,-0.585 0.522,-0.567 0.532,-0.547C0.542,-0.526 0.547,-0.503 0.547,-0.479C0.547,-0.459 0.543,-0.44 0.535,-0.422C0.528,-0.405 0.517,-0.389 0.503,-0.375C0.489,-0.361 0.473,-0.348 0.453,-0.338C0.434,-0.328 0.412,-0.32 0.389,-0.314L0.625,-0L0.498,-0L0.273,-0.304L0.197,-0.304L0.197,-0L0.088,-0L0.088,-0.647ZM0.197,-0.337L0.26,-0.337C0.284,-0.337 0.307,-0.34 0.327,-0.347C0.348,-0.353 0.366,-0.362 0.381,-0.374C0.396,-0.386 0.408,-0.401 0.417,-0.417C0.425,-0.434 0.429,-0.453 0.429,-0.475C0.429,-0.494 0.426,-0.512 0.419,-0.528C0.413,-0.545 0.403,-0.559 0.391,-0.57C0.379,-0.582 0.364,-0.591 0.347,-0.597C0.331,-0.604 0.312,-0.607 0.292,-0.607L0.197,-0.607L0.197,-0.337Z" style="fill:rgb(200,80,0);fill-rule:nonzero;"/>
                </g>
                <g transform="matrix(33.333333,0,0,33.333333,2276.760539,157.153772)">
                    <path d="M0.096,-0.481L0.166,-0.509L0.194,-0.509L0.194,-0L0.096,-0L0.096,-0.481ZM0.088,-0.691C0.088,-0.699 0.089,-0.707 0.092,-0.713C0.095,-0.72 0.099,-0.726 0.104,-0.731C0.11,-0.737 0.116,-0.741 0.123,-0.744C0.129,-0.747 0.137,-0.748 0.145,-0.748C0.152,-0.748 0.16,-0.747 0.167,-0.744C0.173,-0.741 0.179,-0.737 0.185,-0.731C0.19,-0.726 0.194,-0.72 0.197,-0.713C0.2,-0.707 0.201,-0.699 0.201,-0.691C0.201,-0.684 0.2,-0.676 0.197,-0.669C0.194,-0.663 0.19,-0.657 0.185,-0.651C0.179,-0.646 0.173,-0.642 0.167,-0.639C0.16,-0.636 0.152,-0.635 0.145,-0.635C0.137,-0.635 0.129,-0.636 0.123,-0.639C0.116,-0.642 0.11,-0.646 0.104,-0.651C0.099,-0.657 0.095,-0.663 0.092,-0.669C0.089,-0.676 0.088,-0.684 0.088,-0.691Z" style="fill:rgb(200,80,0);fill-rule:nonzero;"/>
                </g>
                <g transform="matrix(33.333333,0,0,33.333333,2286.395955,157.153772)">
                    <path d="M0.559,-0.474L0.559,-0.432L0.464,-0.432C0.473,-0.418 0.481,-0.403 0.487,-0.386C0.493,-0.369 0.496,-0.352 0.496,-0.335C0.496,-0.309 0.49,-0.286 0.479,-0.265C0.468,-0.243 0.452,-0.225 0.431,-0.21C0.411,-0.195 0.387,-0.183 0.358,-0.175C0.33,-0.166 0.299,-0.162 0.265,-0.162C0.252,-0.162 0.239,-0.163 0.226,-0.165C0.213,-0.167 0.201,-0.17 0.191,-0.173C0.182,-0.165 0.174,-0.156 0.167,-0.146C0.161,-0.135 0.158,-0.125 0.158,-0.115C0.158,-0.105 0.163,-0.097 0.174,-0.091C0.185,-0.085 0.201,-0.082 0.221,-0.081L0.405,-0.072C0.435,-0.071 0.46,-0.067 0.479,-0.062C0.499,-0.056 0.515,-0.048 0.526,-0.039C0.538,-0.029 0.546,-0.018 0.551,-0.005C0.556,0.008 0.559,0.023 0.559,0.039C0.559,0.068 0.552,0.094 0.538,0.118C0.525,0.142 0.505,0.162 0.48,0.178C0.455,0.195 0.424,0.208 0.387,0.217C0.35,0.226 0.309,0.23 0.263,0.23C0.221,0.23 0.185,0.228 0.154,0.223C0.123,0.218 0.098,0.211 0.077,0.202C0.057,0.193 0.041,0.183 0.031,0.17C0.021,0.158 0.016,0.144 0.016,0.128C0.016,0.114 0.02,0.101 0.026,0.089C0.033,0.076 0.042,0.064 0.053,0.052C0.063,0.041 0.075,0.03 0.088,0.019C0.101,0.008 0.114,-0.002 0.127,-0.012C0.118,-0.015 0.109,-0.018 0.101,-0.022C0.093,-0.026 0.086,-0.031 0.081,-0.036C0.075,-0.041 0.07,-0.047 0.067,-0.053C0.064,-0.059 0.062,-0.065 0.062,-0.072C0.062,-0.082 0.065,-0.093 0.07,-0.104C0.075,-0.115 0.083,-0.125 0.092,-0.135C0.101,-0.145 0.112,-0.154 0.124,-0.162C0.136,-0.171 0.15,-0.177 0.164,-0.182C0.13,-0.196 0.104,-0.216 0.085,-0.242C0.066,-0.267 0.056,-0.297 0.056,-0.33C0.056,-0.354 0.062,-0.378 0.073,-0.399C0.084,-0.421 0.1,-0.44 0.12,-0.457C0.139,-0.473 0.163,-0.486 0.189,-0.495C0.216,-0.505 0.244,-0.509 0.275,-0.509C0.29,-0.509 0.305,-0.508 0.32,-0.506C0.334,-0.504 0.348,-0.502 0.36,-0.499C0.373,-0.495 0.384,-0.492 0.393,-0.487C0.403,-0.483 0.41,-0.479 0.416,-0.474L0.559,-0.474ZM0.158,-0.004C0.15,0.002 0.144,0.008 0.138,0.015C0.133,0.021 0.128,0.029 0.124,0.036C0.12,0.044 0.117,0.051 0.115,0.059C0.113,0.066 0.112,0.074 0.112,0.081C0.112,0.092 0.116,0.102 0.124,0.112C0.132,0.122 0.144,0.131 0.159,0.139C0.175,0.147 0.194,0.153 0.218,0.158C0.242,0.162 0.269,0.165 0.3,0.165C0.333,0.165 0.363,0.162 0.389,0.157C0.416,0.152 0.438,0.145 0.456,0.136C0.475,0.127 0.489,0.118 0.498,0.107C0.508,0.097 0.513,0.086 0.513,0.075C0.513,0.064 0.51,0.055 0.504,0.046C0.498,0.038 0.49,0.032 0.479,0.026C0.469,0.021 0.456,0.017 0.44,0.015C0.425,0.012 0.408,0.011 0.389,0.011C0.365,0.011 0.34,0.01 0.316,0.009C0.292,0.008 0.269,0.007 0.248,0.005C0.226,0.004 0.208,0.002 0.192,0C0.176,-0.002 0.165,-0.003 0.158,-0.004ZM0.281,-0.188C0.295,-0.188 0.309,-0.191 0.322,-0.198C0.335,-0.204 0.346,-0.213 0.356,-0.224C0.366,-0.235 0.374,-0.248 0.38,-0.262C0.386,-0.277 0.389,-0.293 0.389,-0.311C0.389,-0.335 0.385,-0.358 0.379,-0.379C0.372,-0.4 0.363,-0.418 0.352,-0.433C0.34,-0.449 0.327,-0.461 0.312,-0.47C0.296,-0.479 0.28,-0.483 0.263,-0.483C0.247,-0.483 0.232,-0.479 0.22,-0.473C0.208,-0.466 0.198,-0.456 0.19,-0.444C0.182,-0.432 0.176,-0.418 0.173,-0.401C0.169,-0.385 0.167,-0.367 0.167,-0.348C0.167,-0.326 0.17,-0.305 0.175,-0.285C0.181,-0.266 0.189,-0.249 0.199,-0.234C0.209,-0.22 0.221,-0.208 0.235,-0.2C0.249,-0.192 0.264,-0.188 0.281,-0.188Z" style="fill:rgb(200,80,0);fill-rule:nonzero;"/>
                </g>
                <g transform="matrix(33.333333,0,0,33.333333,2305.162232,157.153772)">
                    <path d="M0.188,-0.408C0.217,-0.442 0.248,-0.467 0.281,-0.484C0.314,-0.501 0.347,-0.509 0.381,-0.509C0.398,-0.509 0.415,-0.505 0.43,-0.498C0.445,-0.49 0.458,-0.479 0.47,-0.465C0.481,-0.452 0.49,-0.436 0.497,-0.417C0.503,-0.399 0.506,-0.379 0.506,-0.358L0.506,-0L0.407,-0L0.407,-0.341C0.407,-0.375 0.4,-0.4 0.385,-0.417C0.37,-0.434 0.351,-0.442 0.327,-0.442C0.317,-0.442 0.306,-0.441 0.294,-0.437C0.282,-0.433 0.27,-0.428 0.258,-0.422C0.246,-0.416 0.234,-0.408 0.222,-0.399C0.21,-0.391 0.199,-0.381 0.188,-0.37L0.188,-0L0.088,-0L0.088,-0.727L0.159,-0.755L0.188,-0.755L0.188,-0.408Z" style="fill:rgb(200,80,0);fill-rule:nonzero;"/>
                </g>
                <g transform="matrix(33.333333,0,0,33.333333,2324.970174,157.153772)">
                    <path d="M0.193,-0.67L0.221,-0.67L0.221,-0.5L0.333,-0.5L0.333,-0.458L0.221,-0.458L0.221,-0.105C0.221,-0.098 0.223,-0.091 0.225,-0.084C0.228,-0.078 0.232,-0.072 0.237,-0.067C0.241,-0.062 0.247,-0.059 0.253,-0.056C0.26,-0.053 0.267,-0.052 0.275,-0.052C0.286,-0.052 0.296,-0.055 0.305,-0.06C0.314,-0.066 0.322,-0.072 0.329,-0.081L0.354,-0.064C0.34,-0.041 0.323,-0.023 0.301,-0.009C0.279,0.004 0.252,0.011 0.22,0.011C0.203,0.011 0.189,0.008 0.176,0.002C0.164,-0.003 0.154,-0.011 0.146,-0.022C0.138,-0.032 0.132,-0.044 0.128,-0.058C0.124,-0.073 0.122,-0.088 0.122,-0.105L0.122,-0.458L0.035,-0.458L0.035,-0.476L0.122,-0.5L0.122,-0.642L0.193,-0.67Z" style="fill:rgb(200,80,0);fill-rule:nonzero;"/>
                </g>
                <g transform="matrix(33.333333,0,0,33.333333,2339.602336,157.153772)">
                    <path d="M0.107,-0.088C0.114,-0.088 0.121,-0.087 0.127,-0.084C0.134,-0.081 0.14,-0.077 0.145,-0.073C0.149,-0.068 0.153,-0.063 0.156,-0.056C0.159,-0.05 0.16,-0.043 0.16,-0.037C0.16,-0.029 0.159,-0.022 0.156,-0.016C0.153,-0.01 0.149,-0.004 0.145,0C0.14,0.005 0.134,0.009 0.127,0.011C0.121,0.014 0.114,0.015 0.107,0.015C0.099,0.015 0.092,0.014 0.086,0.011C0.079,0.009 0.074,0.005 0.069,0C0.064,-0.004 0.06,-0.01 0.057,-0.016C0.055,-0.022 0.053,-0.029 0.053,-0.037C0.053,-0.043 0.055,-0.05 0.057,-0.056C0.06,-0.063 0.064,-0.068 0.069,-0.073C0.074,-0.077 0.079,-0.081 0.086,-0.084C0.092,-0.087 0.099,-0.088 0.107,-0.088Z" style="fill:rgb(200,80,0);fill-rule:nonzero;"/>
                </g>
            </g>
        </g>
    </g>
</svg>
