<?xml version="1.0" encoding="UTF-8" standalone="no"?>
<!DOCTYPE svg PUBLIC "-//W3C//DTD SVG 1.1//EN" "http://www.w3.org/Graphics/SVG/1.1/DTD/svg11.dtd">
<svg width="100%" height="100%" viewBox="0 0 440 140" version="1.1" xmlns="http://www.w3.org/2000/svg" xmlns:xlink="http://www.w3.org/1999/xlink" xml:space="preserve" xmlns:serif="http://www.serif.com/" style="fill-rule:evenodd;clip-rule:evenodd;stroke-linejoin:round;stroke-miterlimit:2;">
    <g transform="matrix(1,0,0,1,-39.730608,-100)">
        <g id="offering" transform="matrix(1.62963,0,0,1.342444,-106.936059,-208.762075)">
            <rect x="90" y="230" width="270" height="104.287" style="fill:none;"/>
            <g transform="matrix(0.299625,0,0,0.363729,205.872275,289.592811)">
                <path d="M61.44,0C95.373,0 122.881,27.507 122.881,61.439C122.881,95.372 95.373,122.879 61.44,122.879C27.508,122.88 0,95.372 0,61.439C0,27.507 27.508,0 61.44,0ZM34.106,67.678L34.091,67.664C33.306,66.946 32.884,65.979 32.835,64.995C32.786,64.013 33.11,63.01 33.819,62.218C33.829,62.207 33.838,62.197 33.848,62.187C34.565,61.403 35.532,60.98 36.516,60.931C37.505,60.882 38.514,61.211 39.308,61.929L52.264,73.677L83.353,41.118C84.093,40.342 85.076,39.938 86.072,39.914C87.064,39.889 88.066,40.243 88.843,40.981L88.843,40.982C89.62,41.721 90.023,42.706 90.048,43.7C90.073,44.693 89.718,45.697 88.98,46.473L55.279,81.769C55.256,81.793 55.231,81.816 55.206,81.836C54.491,82.551 53.557,82.931 52.608,82.966C51.634,83.003 50.645,82.673 49.864,81.966L34.118,67.688L34.106,67.678Z" style="fill:rgb(200,80,0);"/>
            </g>
        </g>
    </g>
</svg>
