<?xml version="1.0" encoding="UTF-8" standalone="no"?>
<!DOCTYPE svg PUBLIC "-//W3C//DTD SVG 1.1//EN" "http://www.w3.org/Graphics/SVG/1.1/DTD/svg11.dtd">
<svg width="100%" height="100%" viewBox="0 0 131 41" version="1.1" xmlns="http://www.w3.org/2000/svg" xmlns:xlink="http://www.w3.org/1999/xlink" xml:space="preserve" xmlns:serif="http://www.serif.com/" style="fill-rule:evenodd;clip-rule:evenodd;stroke-linecap:round;stroke-miterlimit:10;">
    <g transform="matrix(1,0,0,1,-1219.732137,-44.534459)">
        <g transform="matrix(1,0,0,1,-41.5,93.750242)">
            <g id="Image-and-Text" serif:id="Image and Text" transform="matrix(1.004682,0,0,1.004682,1149.210146,-238.331997)">
                <g transform="matrix(-0.940476,0,-0,-0.957831,197.583333,361.12397)">
                    <path d="M49,180.5C49,180.5 53.222,180.369 55.38,173.453C57.13,167.843 59.808,151.092 62.291,149.962C66.014,148.27 73.422,147.321 80.899,145.786C87.491,144.433 91.532,138.739 91.532,138.739C91.532,138.739 88.562,154.472 80.367,162.768C67.815,175.475 55.197,180.555 49,180.5ZM53.866,178.719C60.488,176.918 70.049,171.713 79.604,162.041C85.109,156.468 88.188,147.455 89.574,142.367C87.622,144.097 84.73,146.067 81.116,146.808C73.733,148.323 66.413,149.238 62.738,150.91C62.581,150.981 62.482,151.216 62.323,151.5C61.896,152.262 61.475,153.405 61.051,154.777C59.302,160.443 57.622,169.831 56.396,173.759C55.7,175.991 54.798,177.584 53.866,178.719Z" style="fill:rgb(19,0,35);"/>
                </g>
                <g transform="matrix(1,0,0,1,61.5,48.235416)">
                    <path d="M50,140L90,140C83.769,140.59 58.519,167.435 55.5,171.485C53.492,174.178 50,180 50,180L50,140Z" style="fill:rgb(19,0,35);"/>
                </g>
                <g transform="matrix(1,0,0,-1,-148.081467,282.915419)">
                    <g transform="matrix(0.99534,0,0,-0.99534,259.581467,94.680434)">
                        <path d="M35.825,25.423L34.371,27.719L35.931,29.943" style="fill:none;stroke:black;stroke-width:1px;"/>
                        <path d="M34.371,27.719C43.443,27.519 48.85,28.022 58.268,22.233" style="fill:none;stroke:black;stroke-width:1px;stroke-miterlimit:6;"/>
                    </g>
                </g>
                <g transform="matrix(1,0,0,1,-159.050905,127.636334)">
                    <text x="331.318px" y="82.252px" style="font-family:'HelveticaNeue', 'Helvetica Neue';font-size:19.907px;">Flip</text>
                    <g transform="matrix(19.906806,0,0,19.906806,401.747864,82.252159)">
                    </g>
                    <text x="368.922px" y="82.252px" style="font-family:'HelveticaNeue', 'Helvetica Neue';font-size:19.907px;fill:white;">me!</text>
                    <path d="M400.116,72.418L399.618,78.609L398.722,78.609L398.224,72.418L398.224,68.039L400.116,68.039L400.116,72.418ZM395.955,78.987C395.729,80.142 395.232,81.011 394.462,81.595C393.692,82.179 392.723,82.471 391.556,82.471C390.733,82.471 390.019,82.338 389.416,82.073C388.812,81.808 388.304,81.436 387.893,80.958C387.481,80.48 387.173,79.91 386.967,79.246C386.761,78.583 386.645,77.859 386.619,77.076C386.619,76.293 386.738,75.577 386.977,74.926C387.216,74.276 387.551,73.712 387.982,73.234C388.414,72.757 388.925,72.385 389.515,72.12C390.106,71.854 390.753,71.721 391.456,71.721C392.372,71.721 393.132,71.911 393.735,72.289C394.339,72.667 394.824,73.148 395.189,73.732C395.554,74.316 395.806,74.953 395.945,75.643C396.084,76.333 396.141,76.99 396.114,77.614L388.41,77.614C388.397,78.065 388.45,78.493 388.57,78.898C388.689,79.303 388.881,79.661 389.147,79.973C389.412,80.285 389.751,80.534 390.162,80.719C390.574,80.905 391.058,80.998 391.615,80.998C392.332,80.998 392.919,80.832 393.377,80.5C393.835,80.169 394.137,79.664 394.283,78.987L395.955,78.987ZM394.323,76.121C394.296,75.723 394.207,75.344 394.054,74.986C393.901,74.628 393.696,74.319 393.437,74.061C393.178,73.802 392.873,73.596 392.521,73.443C392.169,73.291 391.781,73.214 391.357,73.214C390.919,73.214 390.524,73.291 390.172,73.443C389.82,73.596 389.518,73.805 389.266,74.07C389.014,74.336 388.815,74.644 388.669,74.996C388.523,75.348 388.437,75.723 388.41,76.121L394.323,76.121ZM370.196,71.96L371.788,71.96L371.788,73.473L371.828,73.473C372.598,72.305 373.706,71.721 375.152,71.721C375.789,71.721 376.367,71.854 376.884,72.12C377.402,72.385 377.767,72.836 377.979,73.473C378.324,72.916 378.779,72.485 379.343,72.179C379.907,71.874 380.527,71.721 381.204,71.721C381.722,71.721 382.189,71.778 382.607,71.891C383.026,72.003 383.384,72.179 383.682,72.418C383.981,72.657 384.213,72.966 384.379,73.344C384.545,73.722 384.628,74.177 384.628,74.707L384.628,82.252L382.936,82.252L382.936,75.504C382.936,75.185 382.909,74.887 382.856,74.608C382.803,74.329 382.704,74.087 382.558,73.881C382.412,73.676 382.209,73.513 381.951,73.394C381.692,73.274 381.357,73.214 380.945,73.214C380.109,73.214 379.452,73.453 378.974,73.931C378.497,74.409 378.258,75.046 378.258,75.842L378.258,82.252L376.566,82.252L376.566,75.504C376.566,75.172 376.536,74.867 376.476,74.588C376.416,74.309 376.314,74.067 376.168,73.861C376.022,73.656 375.826,73.496 375.58,73.384C375.335,73.271 375.02,73.214 374.635,73.214C374.144,73.214 373.722,73.314 373.371,73.513C373.019,73.712 372.734,73.951 372.515,74.23C372.296,74.508 372.136,74.797 372.037,75.096C371.937,75.394 371.888,75.643 371.888,75.842L371.888,82.252L370.196,82.252L370.196,71.96ZM398.065,80.043L400.275,80.043L400.275,82.252L398.065,82.252L398.065,80.043Z"/>
                </g>
            </g>
        </g>
    </g>
</svg>
