<?xml version="1.0" encoding="UTF-8" standalone="no"?>
<!DOCTYPE svg PUBLIC "-//W3C//DTD SVG 1.1//EN" "http://www.w3.org/Graphics/SVG/1.1/DTD/svg11.dtd">
<svg width="100%" height="100%" viewBox="0 0 227 33" version="1.1" xmlns="http://www.w3.org/2000/svg" xmlns:xlink="http://www.w3.org/1999/xlink" xml:space="preserve" xmlns:serif="http://www.serif.com/" style="fill-rule:evenodd;clip-rule:evenodd;stroke-linejoin:round;stroke-miterlimit:2;">
    <g transform="matrix(1,0,0,1,-281.583338,-1731.60897)">
        <g id="Let-s-depuzzle." serif:id="Let&apos;s depuzzle." transform="matrix(1,0,0,1,-1683.523555,1599.617959)">
            <g>
                <g transform="matrix(33.333333,0,0,33.333333,1962.177205,157.153772)">
                    <path d="M0.088,-0.647L0.197,-0.647L0.197,-0.042L0.523,-0.042L0.523,-0L0.088,-0L0.088,-0.647Z" style="fill:rgb(200,80,0);fill-rule:nonzero;"/>
                </g>
                <g transform="matrix(33.333333,0,0,33.333333,1979.918091,157.153772)">
                    <path d="M0.299,0.011C0.265,0.011 0.234,0.004 0.204,-0.008C0.174,-0.021 0.148,-0.038 0.126,-0.06C0.104,-0.082 0.086,-0.108 0.073,-0.137C0.061,-0.166 0.054,-0.198 0.054,-0.231C0.054,-0.271 0.06,-0.308 0.072,-0.342C0.083,-0.376 0.1,-0.405 0.122,-0.43C0.143,-0.455 0.169,-0.474 0.199,-0.488C0.229,-0.502 0.263,-0.509 0.3,-0.509C0.332,-0.509 0.362,-0.503 0.39,-0.492C0.417,-0.48 0.441,-0.465 0.46,-0.446C0.48,-0.426 0.495,-0.404 0.506,-0.378C0.517,-0.353 0.522,-0.326 0.522,-0.299L0.15,-0.299C0.15,-0.265 0.154,-0.234 0.163,-0.206C0.171,-0.177 0.184,-0.152 0.199,-0.131C0.215,-0.111 0.233,-0.094 0.255,-0.083C0.276,-0.071 0.3,-0.065 0.326,-0.065C0.347,-0.065 0.368,-0.068 0.388,-0.075C0.408,-0.082 0.426,-0.092 0.442,-0.103C0.458,-0.114 0.472,-0.127 0.483,-0.142C0.494,-0.157 0.502,-0.172 0.507,-0.188L0.536,-0.175C0.528,-0.149 0.517,-0.125 0.501,-0.103C0.485,-0.08 0.466,-0.06 0.445,-0.044C0.424,-0.027 0.401,-0.014 0.375,-0.004C0.35,0.006 0.325,0.011 0.299,0.011ZM0.398,-0.339C0.398,-0.358 0.395,-0.375 0.388,-0.392C0.381,-0.408 0.372,-0.422 0.36,-0.434C0.349,-0.446 0.335,-0.455 0.319,-0.462C0.304,-0.469 0.287,-0.472 0.269,-0.472C0.254,-0.472 0.24,-0.469 0.226,-0.462C0.212,-0.455 0.2,-0.446 0.189,-0.434C0.179,-0.422 0.17,-0.408 0.163,-0.392C0.156,-0.376 0.152,-0.358 0.15,-0.339L0.398,-0.339Z" style="fill:rgb(200,80,0);fill-rule:nonzero;"/>
                </g>
                <g transform="matrix(33.333333,0,0,33.333333,1999.546997,157.153772)">
                    <path d="M0.193,-0.67L0.221,-0.67L0.221,-0.5L0.333,-0.5L0.333,-0.458L0.221,-0.458L0.221,-0.105C0.221,-0.098 0.223,-0.091 0.225,-0.084C0.228,-0.078 0.232,-0.072 0.237,-0.067C0.241,-0.062 0.247,-0.059 0.253,-0.056C0.26,-0.053 0.267,-0.052 0.275,-0.052C0.286,-0.052 0.296,-0.055 0.305,-0.06C0.314,-0.066 0.322,-0.072 0.329,-0.081L0.354,-0.064C0.34,-0.041 0.323,-0.023 0.301,-0.009C0.279,0.004 0.252,0.011 0.22,0.011C0.203,0.011 0.189,0.008 0.176,0.002C0.164,-0.003 0.154,-0.011 0.146,-0.022C0.138,-0.032 0.132,-0.044 0.128,-0.058C0.124,-0.073 0.122,-0.088 0.122,-0.105L0.122,-0.458L0.035,-0.458L0.035,-0.476L0.122,-0.5L0.122,-0.642L0.193,-0.67Z" style="fill:rgb(200,80,0);fill-rule:nonzero;"/>
                </g>
                <g transform="matrix(33.333333,0,0,33.333333,2012.779419,157.153772)">
                    <path d="M0.073,-0.384C0.07,-0.408 0.067,-0.43 0.062,-0.449C0.058,-0.468 0.054,-0.487 0.05,-0.505C0.045,-0.522 0.042,-0.54 0.039,-0.557C0.037,-0.574 0.035,-0.593 0.035,-0.613C0.035,-0.62 0.036,-0.626 0.039,-0.632C0.042,-0.638 0.045,-0.643 0.05,-0.648C0.054,-0.652 0.059,-0.656 0.065,-0.658C0.071,-0.661 0.078,-0.662 0.084,-0.662C0.098,-0.662 0.11,-0.657 0.12,-0.648C0.129,-0.639 0.134,-0.627 0.134,-0.613C0.134,-0.593 0.133,-0.574 0.13,-0.557C0.127,-0.54 0.123,-0.522 0.119,-0.505C0.115,-0.487 0.111,-0.468 0.107,-0.449C0.103,-0.43 0.099,-0.408 0.096,-0.384L0.073,-0.384Z" style="fill:rgb(200,80,0);fill-rule:nonzero;"/>
                </g>
                <g transform="matrix(33.333333,0,0,33.333333,2018.410929,157.153772)">
                    <path d="M0.239,-0.024C0.252,-0.024 0.264,-0.026 0.276,-0.03C0.287,-0.034 0.297,-0.04 0.305,-0.046C0.314,-0.053 0.32,-0.061 0.325,-0.07C0.329,-0.079 0.332,-0.088 0.332,-0.098C0.332,-0.113 0.328,-0.126 0.32,-0.138C0.312,-0.149 0.302,-0.159 0.29,-0.168C0.277,-0.177 0.263,-0.185 0.247,-0.193C0.231,-0.2 0.215,-0.208 0.198,-0.216C0.182,-0.224 0.165,-0.233 0.149,-0.241C0.133,-0.25 0.119,-0.261 0.107,-0.273C0.094,-0.285 0.084,-0.299 0.076,-0.315C0.069,-0.33 0.065,-0.349 0.065,-0.37C0.065,-0.39 0.069,-0.408 0.078,-0.426C0.086,-0.443 0.098,-0.457 0.113,-0.47C0.128,-0.482 0.146,-0.492 0.167,-0.499C0.188,-0.506 0.211,-0.509 0.235,-0.509C0.252,-0.509 0.267,-0.508 0.282,-0.506C0.296,-0.504 0.31,-0.499 0.324,-0.493C0.338,-0.486 0.352,-0.477 0.365,-0.465C0.379,-0.452 0.393,-0.437 0.409,-0.417L0.372,-0.384C0.353,-0.415 0.332,-0.438 0.309,-0.453C0.286,-0.469 0.261,-0.476 0.234,-0.476C0.22,-0.476 0.207,-0.474 0.195,-0.471C0.184,-0.468 0.174,-0.463 0.165,-0.457C0.157,-0.451 0.15,-0.444 0.146,-0.436C0.141,-0.427 0.139,-0.419 0.139,-0.41C0.139,-0.395 0.143,-0.382 0.151,-0.371C0.159,-0.36 0.17,-0.35 0.184,-0.341C0.198,-0.332 0.213,-0.323 0.231,-0.316C0.248,-0.308 0.266,-0.301 0.284,-0.293C0.302,-0.285 0.32,-0.277 0.337,-0.268C0.355,-0.258 0.37,-0.248 0.384,-0.236C0.397,-0.224 0.408,-0.21 0.417,-0.195C0.425,-0.179 0.429,-0.161 0.429,-0.14C0.429,-0.119 0.425,-0.099 0.417,-0.081C0.41,-0.062 0.398,-0.046 0.382,-0.033C0.366,-0.019 0.347,-0.009 0.323,-0.001C0.299,0.007 0.271,0.011 0.239,0.011C0.224,0.011 0.209,0.01 0.194,0.007C0.178,0.005 0.163,0.001 0.147,-0.006C0.131,-0.013 0.116,-0.022 0.1,-0.034C0.084,-0.046 0.069,-0.062 0.054,-0.082L0.095,-0.118C0.107,-0.101 0.118,-0.087 0.129,-0.075C0.14,-0.063 0.152,-0.053 0.163,-0.046C0.175,-0.038 0.187,-0.032 0.199,-0.029C0.211,-0.026 0.224,-0.024 0.239,-0.024Z" style="fill:rgb(200,80,0);fill-rule:nonzero;"/>
                </g>
                <g transform="matrix(33.333333,0,0,33.333333,2042.613403,157.153772)">
                    <path d="M0.431,-0.048C0.419,-0.039 0.407,-0.031 0.394,-0.024C0.38,-0.016 0.366,-0.01 0.352,-0.005C0.337,-0 0.323,0.004 0.308,0.007C0.293,0.009 0.279,0.011 0.265,0.011C0.236,0.011 0.208,0.004 0.183,-0.01C0.157,-0.023 0.135,-0.042 0.116,-0.065C0.097,-0.088 0.082,-0.115 0.071,-0.146C0.06,-0.177 0.054,-0.209 0.054,-0.243C0.054,-0.277 0.061,-0.31 0.075,-0.342C0.089,-0.374 0.108,-0.402 0.131,-0.427C0.155,-0.452 0.183,-0.472 0.215,-0.487C0.246,-0.502 0.28,-0.509 0.316,-0.509C0.341,-0.509 0.362,-0.505 0.38,-0.497C0.398,-0.488 0.415,-0.477 0.431,-0.463L0.431,-0.727L0.5,-0.755L0.529,-0.755L0.529,-0L0.431,-0L0.431,-0.048ZM0.431,-0.341C0.431,-0.36 0.427,-0.378 0.42,-0.394C0.412,-0.41 0.403,-0.424 0.391,-0.436C0.379,-0.447 0.366,-0.456 0.351,-0.463C0.337,-0.469 0.322,-0.472 0.307,-0.472C0.287,-0.472 0.268,-0.467 0.251,-0.458C0.234,-0.448 0.219,-0.434 0.206,-0.416C0.193,-0.399 0.183,-0.377 0.175,-0.353C0.168,-0.328 0.164,-0.301 0.164,-0.271C0.164,-0.24 0.168,-0.21 0.176,-0.182C0.184,-0.154 0.196,-0.13 0.21,-0.11C0.224,-0.089 0.24,-0.073 0.26,-0.061C0.279,-0.049 0.299,-0.043 0.321,-0.043C0.331,-0.043 0.342,-0.044 0.352,-0.047C0.363,-0.05 0.373,-0.054 0.382,-0.058C0.392,-0.063 0.401,-0.069 0.409,-0.075C0.417,-0.081 0.424,-0.087 0.431,-0.094L0.431,-0.341Z" style="fill:rgb(200,80,0);fill-rule:nonzero;"/>
                </g>
                <g transform="matrix(33.333333,0,0,33.333333,2063.153768,157.153772)">
                    <path d="M0.299,0.011C0.265,0.011 0.234,0.004 0.204,-0.008C0.174,-0.021 0.148,-0.038 0.126,-0.06C0.104,-0.082 0.086,-0.108 0.073,-0.137C0.061,-0.166 0.054,-0.198 0.054,-0.231C0.054,-0.271 0.06,-0.308 0.072,-0.342C0.083,-0.376 0.1,-0.405 0.122,-0.43C0.143,-0.455 0.169,-0.474 0.199,-0.488C0.229,-0.502 0.263,-0.509 0.3,-0.509C0.332,-0.509 0.362,-0.503 0.39,-0.492C0.417,-0.48 0.441,-0.465 0.46,-0.446C0.48,-0.426 0.495,-0.404 0.506,-0.378C0.517,-0.353 0.522,-0.326 0.522,-0.299L0.15,-0.299C0.15,-0.265 0.154,-0.234 0.163,-0.206C0.171,-0.177 0.184,-0.152 0.199,-0.131C0.215,-0.111 0.233,-0.094 0.255,-0.083C0.276,-0.071 0.3,-0.065 0.326,-0.065C0.347,-0.065 0.368,-0.068 0.388,-0.075C0.408,-0.082 0.426,-0.092 0.442,-0.103C0.458,-0.114 0.472,-0.127 0.483,-0.142C0.494,-0.157 0.502,-0.172 0.507,-0.188L0.536,-0.175C0.528,-0.149 0.517,-0.125 0.501,-0.103C0.485,-0.08 0.466,-0.06 0.445,-0.044C0.424,-0.027 0.401,-0.014 0.375,-0.004C0.35,0.006 0.325,0.011 0.299,0.011ZM0.398,-0.339C0.398,-0.358 0.395,-0.375 0.388,-0.392C0.381,-0.408 0.372,-0.422 0.36,-0.434C0.349,-0.446 0.335,-0.455 0.319,-0.462C0.304,-0.469 0.287,-0.472 0.269,-0.472C0.254,-0.472 0.24,-0.469 0.226,-0.462C0.212,-0.455 0.2,-0.446 0.189,-0.434C0.179,-0.422 0.17,-0.408 0.163,-0.392C0.156,-0.376 0.152,-0.358 0.15,-0.339L0.398,-0.339Z" style="fill:rgb(200,80,0);fill-rule:nonzero;"/>
                </g>
                <g transform="matrix(33.333333,0,0,33.333333,2082.782674,157.153772)">
                    <path d="M0.159,-0.509L0.188,-0.509L0.188,-0.397C0.198,-0.41 0.209,-0.423 0.221,-0.436C0.233,-0.449 0.247,-0.462 0.261,-0.472C0.276,-0.483 0.293,-0.492 0.311,-0.499C0.328,-0.506 0.348,-0.509 0.369,-0.509C0.399,-0.509 0.426,-0.503 0.45,-0.491C0.474,-0.478 0.494,-0.462 0.511,-0.44C0.529,-0.419 0.542,-0.394 0.551,-0.366C0.56,-0.337 0.565,-0.307 0.565,-0.275C0.565,-0.234 0.559,-0.195 0.548,-0.16C0.536,-0.125 0.52,-0.095 0.499,-0.07C0.478,-0.044 0.452,-0.025 0.422,-0.01C0.392,0.004 0.358,0.011 0.32,0.011C0.307,0.011 0.294,0.01 0.282,0.009C0.27,0.007 0.259,0.005 0.248,0.002C0.238,-0.001 0.227,-0.005 0.218,-0.009C0.208,-0.014 0.198,-0.019 0.188,-0.026L0.188,0.21L0.088,0.21L0.088,-0.481L0.159,-0.509ZM0.188,-0.135C0.188,-0.12 0.191,-0.106 0.197,-0.093C0.204,-0.079 0.213,-0.068 0.225,-0.058C0.236,-0.048 0.25,-0.04 0.267,-0.034C0.283,-0.029 0.301,-0.026 0.32,-0.026C0.339,-0.026 0.356,-0.031 0.373,-0.04C0.389,-0.049 0.404,-0.063 0.416,-0.08C0.428,-0.098 0.438,-0.118 0.445,-0.143C0.452,-0.167 0.455,-0.193 0.455,-0.223C0.455,-0.259 0.452,-0.292 0.445,-0.319C0.439,-0.347 0.43,-0.369 0.418,-0.388C0.407,-0.406 0.393,-0.42 0.377,-0.429C0.361,-0.438 0.344,-0.442 0.325,-0.442C0.311,-0.442 0.297,-0.44 0.284,-0.436C0.271,-0.431 0.258,-0.425 0.247,-0.418C0.235,-0.41 0.224,-0.402 0.214,-0.392C0.204,-0.382 0.195,-0.372 0.188,-0.361L0.188,-0.135Z" style="fill:rgb(200,80,0);fill-rule:nonzero;"/>
                </g>
                <g transform="matrix(33.333333,0,0,33.333333,2103.420695,157.153772)">
                    <path d="M0.188,-0.5L0.188,-0.144C0.188,-0.132 0.19,-0.12 0.196,-0.109C0.202,-0.098 0.21,-0.088 0.22,-0.08C0.23,-0.072 0.241,-0.066 0.255,-0.061C0.268,-0.056 0.282,-0.054 0.297,-0.054C0.307,-0.054 0.318,-0.056 0.329,-0.06C0.34,-0.064 0.351,-0.07 0.362,-0.077C0.373,-0.085 0.383,-0.093 0.392,-0.103C0.401,-0.113 0.409,-0.124 0.416,-0.135L0.416,-0.5L0.514,-0.5L0.514,-0L0.416,-0L0.416,-0.094C0.407,-0.079 0.396,-0.066 0.383,-0.053C0.369,-0.041 0.355,-0.029 0.34,-0.02C0.325,-0.011 0.309,-0.003 0.292,0.002C0.276,0.008 0.261,0.011 0.246,0.011C0.224,0.011 0.204,0.007 0.185,-0.001C0.165,-0.01 0.149,-0.021 0.134,-0.035C0.12,-0.049 0.109,-0.065 0.1,-0.084C0.092,-0.103 0.088,-0.123 0.088,-0.144L0.088,-0.5L0.188,-0.5Z" style="fill:rgb(200,80,0);fill-rule:nonzero;"/>
                </g>
                <g transform="matrix(33.333333,0,0,33.333333,2123.489054,157.153772)">
                    <path d="M0.01,-0.026L0.369,-0.458L0.01,-0.458L0.01,-0.5L0.51,-0.5L0.51,-0.479L0.143,-0.042L0.51,-0.042L0.51,-0L0.01,-0L0.01,-0.026Z" style="fill:rgb(200,80,0);fill-rule:nonzero;"/>
                </g>
                <g transform="matrix(33.333333,0,0,33.333333,2140.855591,157.153772)">
                    <path d="M0.01,-0.026L0.369,-0.458L0.01,-0.458L0.01,-0.5L0.51,-0.5L0.51,-0.479L0.143,-0.042L0.51,-0.042L0.51,-0L0.01,-0L0.01,-0.026Z" style="fill:rgb(200,80,0);fill-rule:nonzero;"/>
                </g>
                <g transform="matrix(33.333333,0,0,33.333333,2158.222127,157.153772)">
                    <path d="M0.188,-0L0.088,-0L0.088,-0.727L0.159,-0.755L0.188,-0.755L0.188,-0Z" style="fill:rgb(200,80,0);fill-rule:nonzero;"/>
                </g>
                <g transform="matrix(33.333333,0,0,33.333333,2167.385539,157.153772)">
                    <path d="M0.299,0.011C0.265,0.011 0.234,0.004 0.204,-0.008C0.174,-0.021 0.148,-0.038 0.126,-0.06C0.104,-0.082 0.086,-0.108 0.073,-0.137C0.061,-0.166 0.054,-0.198 0.054,-0.231C0.054,-0.271 0.06,-0.308 0.072,-0.342C0.083,-0.376 0.1,-0.405 0.122,-0.43C0.143,-0.455 0.169,-0.474 0.199,-0.488C0.229,-0.502 0.263,-0.509 0.3,-0.509C0.332,-0.509 0.362,-0.503 0.39,-0.492C0.417,-0.48 0.441,-0.465 0.46,-0.446C0.48,-0.426 0.495,-0.404 0.506,-0.378C0.517,-0.353 0.522,-0.326 0.522,-0.299L0.15,-0.299C0.15,-0.265 0.154,-0.234 0.163,-0.206C0.171,-0.177 0.184,-0.152 0.199,-0.131C0.215,-0.111 0.233,-0.094 0.255,-0.083C0.276,-0.071 0.3,-0.065 0.326,-0.065C0.347,-0.065 0.368,-0.068 0.388,-0.075C0.408,-0.082 0.426,-0.092 0.442,-0.103C0.458,-0.114 0.472,-0.127 0.483,-0.142C0.494,-0.157 0.502,-0.172 0.507,-0.188L0.536,-0.175C0.528,-0.149 0.517,-0.125 0.501,-0.103C0.485,-0.08 0.466,-0.06 0.445,-0.044C0.424,-0.027 0.401,-0.014 0.375,-0.004C0.35,0.006 0.325,0.011 0.299,0.011ZM0.398,-0.339C0.398,-0.358 0.395,-0.375 0.388,-0.392C0.381,-0.408 0.372,-0.422 0.36,-0.434C0.349,-0.446 0.335,-0.455 0.319,-0.462C0.304,-0.469 0.287,-0.472 0.269,-0.472C0.254,-0.472 0.24,-0.469 0.226,-0.462C0.212,-0.455 0.2,-0.446 0.189,-0.434C0.179,-0.422 0.17,-0.408 0.163,-0.392C0.156,-0.376 0.152,-0.358 0.15,-0.339L0.398,-0.339Z" style="fill:rgb(200,80,0);fill-rule:nonzero;"/>
                </g>
                <g transform="matrix(33.333333,0,0,33.333333,2186.379679,157.153772)">
                    <path d="M0.107,-0.088C0.114,-0.088 0.121,-0.087 0.127,-0.084C0.134,-0.081 0.14,-0.077 0.145,-0.073C0.149,-0.068 0.153,-0.063 0.156,-0.056C0.159,-0.05 0.16,-0.043 0.16,-0.037C0.16,-0.029 0.159,-0.022 0.156,-0.016C0.153,-0.01 0.149,-0.004 0.145,0C0.14,0.005 0.134,0.009 0.127,0.011C0.121,0.014 0.114,0.015 0.107,0.015C0.099,0.015 0.092,0.014 0.086,0.011C0.079,0.009 0.074,0.005 0.069,0C0.064,-0.004 0.06,-0.01 0.057,-0.016C0.055,-0.022 0.053,-0.029 0.053,-0.037C0.053,-0.043 0.055,-0.05 0.057,-0.056C0.06,-0.063 0.064,-0.068 0.069,-0.073C0.074,-0.077 0.079,-0.081 0.086,-0.084C0.092,-0.087 0.099,-0.088 0.107,-0.088Z" style="fill:rgb(200,80,0);fill-rule:nonzero;"/>
                </g>
            </g>
        </g>
    </g>
</svg>
