<?xml version="1.0" encoding="UTF-8" standalone="no"?>
<!DOCTYPE svg PUBLIC "-//W3C//DTD SVG 1.1//EN" "http://www.w3.org/Graphics/SVG/1.1/DTD/svg11.dtd">
<svg width="100%" height="100%" viewBox="0 0 348 245" version="1.1" xmlns="http://www.w3.org/2000/svg" xmlns:xlink="http://www.w3.org/1999/xlink" xml:space="preserve" xmlns:serif="http://www.serif.com/" style="fill-rule:evenodd;clip-rule:evenodd;stroke-linejoin:round;stroke-miterlimit:2;">
    <g id="Logo">
        <g>
            <path id="_-Shadow---hinted-" serif:id="«Shadow» (hinted)" d="M245.186,240.226L1.74,240.226L1.74,4L343.078,4L343.078,240.226L257.165,240.226L272.581,218.211C273.649,216.685 273.278,214.579 271.752,213.511L279.632,202.257C289.945,207.477 302.809,204.458 309.63,194.717C317.108,184.037 314.509,169.295 303.829,161.817C293.149,154.339 278.407,156.938 270.929,167.618C264.108,177.359 265.671,190.48 274.103,198.386L266.223,209.64C264.697,208.571 262.591,208.943 261.523,210.468L244.103,235.348C243.034,236.873 243.406,238.979 244.931,240.048L245.186,240.226ZM242.881,239.184C242.22,237.795 242.305,236.099 243.249,234.75L260.67,209.871C261.862,208.168 264.042,207.564 265.896,208.29L272.742,198.514C264.51,190.206 263.132,176.936 270.076,167.02C277.883,155.87 293.275,153.156 304.426,160.964C315.577,168.771 318.291,184.163 310.483,195.314C303.54,205.23 290.599,208.474 279.977,203.58L273.131,213.356C274.448,214.85 274.626,217.106 273.434,218.808L259.166,239.184L342.036,239.184L342.036,5.042L2.781,5.042L2.781,239.184L242.881,239.184Z" style="fill:rgb(221,232,240);fill-opacity:0.5;"/>
            <path d="M243.441,237.72L0,237.72L0,0L341.331,0L341.331,237.72L255.42,237.72L270.835,215.566C271.903,214.031 271.532,211.911 270.006,210.836L277.886,199.511C288.198,204.764 301.062,201.726 307.883,191.923C315.361,181.176 312.762,166.341 302.082,158.815C291.403,151.29 276.661,153.906 269.183,164.653C262.362,174.456 263.925,187.66 272.357,195.616L264.477,206.94C262.952,205.865 260.846,206.239 259.778,207.774L242.357,232.811C241.289,234.346 241.66,236.466 243.186,237.541L243.441,237.72Z" style="fill:white;"/>
            <path d="M243.441,237.72L0,237.72L0,-0L341.331,-0L341.331,237.72L255.42,237.72L270.835,215.566C271.903,214.031 271.532,211.911 270.006,210.836L277.886,199.511C288.198,204.764 301.062,201.726 307.883,191.923C315.361,181.176 312.762,166.341 302.082,158.815C291.403,151.29 276.661,153.906 269.183,164.653C262.362,174.456 263.925,187.66 272.357,195.616L264.477,206.94C262.952,205.865 260.846,206.239 259.778,207.774L242.357,232.811C241.289,234.346 241.66,236.466 243.186,237.541L243.441,237.72ZM239.259,235.212C239.157,233.898 239.489,232.542 240.299,231.379L257.719,206.342C259.067,204.405 261.362,203.529 263.536,203.902L269.117,195.882C261.15,186.996 260.016,173.437 267.124,163.221C275.398,151.329 291.71,148.438 303.527,156.765C315.33,165.082 318.206,181.477 309.942,193.356C302.83,203.577 289.779,207.146 278.75,202.661L273.171,210.678C274.267,212.599 274.238,215.065 272.893,216.998L260.22,235.212L338.823,235.212L338.823,2.508L2.508,2.508L2.508,235.212L239.259,235.212Z" style="fill:rgb(219,99,0);"/>
        </g>
        <path d="M243.441,237.72L0,237.72L0,0L341.331,0L341.331,237.72L255.42,237.72L270.835,215.566C271.903,214.031 271.532,211.911 270.006,210.836L277.886,199.511C288.198,204.764 301.062,201.726 307.883,191.923C315.361,181.176 312.762,166.341 302.082,158.815C291.403,151.29 276.661,153.906 269.183,164.653C262.362,174.456 263.925,187.66 272.357,195.616L264.477,206.94C262.952,205.865 260.846,206.239 259.778,207.774L242.357,232.811C241.289,234.346 241.66,236.466 243.186,237.541L243.441,237.72Z" style="fill:white;"/>
        <path d="M243.441,237.72L0,237.72L0,-0L341.331,-0L341.331,237.72L255.42,237.72L270.835,215.566C271.903,214.031 271.532,211.911 270.006,210.836L277.886,199.511C288.198,204.764 301.062,201.726 307.883,191.923C315.361,181.176 312.762,166.341 302.082,158.815C291.403,151.29 276.661,153.906 269.183,164.653C262.362,174.456 263.925,187.66 272.357,195.616L264.477,206.94C262.952,205.865 260.846,206.239 259.778,207.774L242.357,232.811C241.289,234.346 241.66,236.466 243.186,237.541L243.441,237.72ZM239.259,235.212C239.157,233.898 239.489,232.542 240.299,231.379L257.719,206.342C259.067,204.405 261.362,203.529 263.536,203.902L269.117,195.882C261.15,186.996 260.016,173.437 267.124,163.221C275.398,151.329 291.71,148.438 303.527,156.765C315.33,165.082 318.206,181.477 309.942,193.356C302.83,203.577 289.779,207.146 278.75,202.661L273.171,210.678C274.267,212.599 274.238,215.065 272.893,216.998L260.22,235.212L338.823,235.212L338.823,2.508L2.508,2.508L2.508,235.212L239.259,235.212Z" style="fill:rgb(219,99,0);"/>
        <g>
            <path d="M54.5,80.615C53.646,81.298 52.718,81.915 51.717,82.464C50.716,83.013 49.672,83.477 48.586,83.856C47.5,84.234 46.407,84.527 45.308,84.735C44.21,84.942 43.135,85.046 42.086,85.046C39.888,85.046 37.831,84.533 35.915,83.508C33.998,82.482 32.326,81.103 30.898,79.369C29.469,77.636 28.34,75.616 27.51,73.309C26.68,71.001 26.265,68.566 26.265,66.002C26.265,63.463 26.784,60.997 27.821,58.605C28.859,56.212 30.269,54.082 32.051,52.214C33.833,50.347 35.915,48.851 38.295,47.728C40.676,46.605 43.221,46.044 45.931,46.044C47.762,46.044 49.355,46.361 50.71,46.996C52.065,47.63 53.329,48.473 54.5,49.523L54.5,29.747L59.737,27.623L61.898,27.623L61.898,84.24L54.5,84.24L54.5,80.615ZM54.5,58.678C54.5,57.213 54.226,55.877 53.676,54.668C53.127,53.459 52.413,52.422 51.534,51.555C50.655,50.688 49.66,50.017 48.549,49.541C47.439,49.065 46.322,48.827 45.198,48.827C43.709,48.827 42.318,49.193 41.024,49.925C39.73,50.658 38.6,51.689 37.636,53.02C36.672,54.351 35.909,55.938 35.347,57.781C34.786,59.624 34.505,61.657 34.505,63.878C34.505,66.271 34.81,68.505 35.42,70.58C36.031,72.655 36.867,74.468 37.929,76.019C38.991,77.569 40.236,78.79 41.664,79.681C43.093,80.572 44.625,81.017 46.261,81.017C47.042,81.017 47.829,80.914 48.623,80.706C49.416,80.499 50.167,80.218 50.875,79.864C51.583,79.51 52.248,79.101 52.871,78.637C53.493,78.173 54.037,77.685 54.5,77.172L54.5,58.678Z" style="fill:rgb(219,99,0);fill-rule:nonzero;"/>
            <rect x="70.211" y="64.611" width="17.835" height="4.285" style="fill:rgb(219,99,0);fill-rule:nonzero;"/>
            <path d="M101.816,46.044L103.94,46.044L103.94,54.467C104.697,53.514 105.533,52.538 106.449,51.537C107.364,50.536 108.377,49.626 109.488,48.808C110.599,47.991 111.826,47.325 113.169,46.813C114.512,46.3 115.976,46.044 117.563,46.044C119.785,46.044 121.799,46.507 123.606,47.435C125.413,48.363 126.957,49.62 128.239,51.207C129.52,52.794 130.509,54.656 131.205,56.792C131.901,58.928 132.249,61.205 132.249,63.622C132.249,66.723 131.822,69.585 130.967,72.21C130.113,74.834 128.892,77.099 127.305,79.003C125.718,80.908 123.789,82.391 121.519,83.453C119.248,84.515 116.709,85.046 113.901,85.046C112.876,85.046 111.918,84.991 111.026,84.881C110.135,84.771 109.293,84.606 108.499,84.387C107.706,84.167 106.937,83.886 106.192,83.544C105.448,83.203 104.697,82.788 103.94,82.299L103.94,100.024L96.469,100.024L96.469,48.131L101.816,46.044ZM103.94,74.133C103.94,75.256 104.184,76.312 104.673,77.3C105.161,78.289 105.844,79.156 106.723,79.901C107.602,80.645 108.652,81.231 109.873,81.658C111.094,82.086 112.436,82.299 113.901,82.299C115.293,82.299 116.605,81.945 117.838,81.237C119.071,80.529 120.145,79.522 121.061,78.216C121.976,76.91 122.697,75.353 123.222,73.547C123.746,71.74 124.009,69.738 124.009,67.541C124.009,64.782 123.765,62.371 123.276,60.308C122.788,58.245 122.111,56.53 121.244,55.162C120.377,53.795 119.352,52.77 118.168,52.086C116.984,51.403 115.683,51.061 114.267,51.061C113.193,51.061 112.162,51.226 111.173,51.555C110.184,51.885 109.25,52.33 108.371,52.892C107.492,53.453 106.681,54.1 105.936,54.833C105.191,55.565 104.526,56.334 103.94,57.14L103.94,74.133Z" style="fill:rgb(219,99,0);fill-rule:nonzero;"/>
            <path d="M145.877,46.739L145.877,73.437C145.877,74.364 146.09,75.243 146.517,76.074C146.945,76.904 147.537,77.624 148.294,78.234C149.05,78.845 149.923,79.327 150.912,79.681C151.901,80.035 152.969,80.212 154.117,80.212C154.849,80.212 155.636,80.053 156.479,79.736C157.321,79.418 158.145,78.985 158.951,78.436C159.756,77.886 160.507,77.239 161.203,76.495C161.899,75.75 162.491,74.963 162.979,74.133L162.979,46.739L170.377,46.739L170.377,84.24L162.979,84.24L162.979,77.209C162.32,78.283 161.496,79.296 160.507,80.248C159.518,81.201 158.45,82.031 157.303,82.739C156.155,83.447 154.971,84.008 153.75,84.423C152.53,84.838 151.37,85.046 150.271,85.046C148.635,85.046 147.097,84.741 145.657,84.13C144.216,83.52 142.959,82.69 141.885,81.64C140.811,80.59 139.962,79.357 139.34,77.941C138.717,76.525 138.406,75.024 138.406,73.437L138.406,46.739L145.877,46.739Z" style="fill:rgb(219,99,0);fill-rule:nonzero;"/>
            <path d="M177.701,82.299L204.655,49.889L177.701,49.889L177.701,46.739L215.239,46.739L215.239,48.351L187.662,81.091L215.239,81.091L215.239,84.24L177.701,84.24L177.701,82.299Z" style="fill:rgb(219,99,0);fill-rule:nonzero;"/>
            <path d="M219.777,82.299L246.73,49.889L219.777,49.889L219.777,46.739L257.314,46.739L257.314,48.351L229.738,81.091L257.314,81.091L257.314,84.24L219.777,84.24L219.777,82.299Z" style="fill:rgb(219,99,0);fill-rule:nonzero;"/>
            <path d="M270.683,84.24L263.212,84.24L263.212,29.747L268.522,27.623L270.683,27.623L270.683,84.24Z" style="fill:rgb(219,99,0);fill-rule:nonzero;"/>
            <path d="M295.187,85.046C292.648,85.046 290.262,84.57 288.028,83.618C285.794,82.665 283.847,81.371 282.186,79.736C280.526,78.1 279.214,76.177 278.25,73.968C277.285,71.758 276.803,69.408 276.803,66.918C276.803,63.915 277.242,61.138 278.121,58.587C279,56.035 280.245,53.832 281.857,51.976C283.468,50.121 285.403,48.668 287.661,47.618C289.92,46.568 292.441,46.044 295.224,46.044C297.665,46.044 299.911,46.477 301.962,47.344C304.013,48.21 305.777,49.37 307.254,50.823C308.731,52.275 309.879,53.954 310.697,55.858C311.514,57.763 311.923,59.752 311.923,61.828L283.981,61.828C283.981,64.342 284.304,66.674 284.951,68.822C285.598,70.971 286.508,72.826 287.68,74.389C288.852,75.951 290.243,77.172 291.855,78.051C293.466,78.93 295.236,79.369 297.165,79.369C298.776,79.369 300.326,79.107 301.816,78.582C303.305,78.057 304.654,77.367 305.862,76.513C307.071,75.658 308.102,74.682 308.957,73.583C309.812,72.485 310.41,71.349 310.751,70.177L312.912,71.13C312.375,73.058 311.508,74.865 310.312,76.55C309.116,78.234 307.718,79.705 306.119,80.963C304.52,82.22 302.78,83.215 300.9,83.947C299.02,84.68 297.116,85.046 295.187,85.046ZM302.585,58.825C302.585,57.409 302.335,56.09 301.834,54.869C301.334,53.649 300.644,52.593 299.765,51.702C298.886,50.81 297.861,50.109 296.689,49.596C295.517,49.083 294.259,48.827 292.917,48.827C291.794,48.827 290.719,49.077 289.694,49.578C288.668,50.078 287.753,50.774 286.947,51.665C286.142,52.556 285.476,53.612 284.951,54.833C284.426,56.054 284.115,57.372 284.017,58.788L302.585,58.825Z" style="fill:rgb(219,99,0);fill-rule:nonzero;"/>
        </g>
    </g>
</svg>
