<?xml version="1.0" encoding="UTF-8" standalone="no"?>
<!DOCTYPE svg PUBLIC "-//W3C//DTD SVG 1.1//EN" "http://www.w3.org/Graphics/SVG/1.1/DTD/svg11.dtd">
<svg width="100%" height="100%" viewBox="0 0 345 241" version="1.1" xmlns="http://www.w3.org/2000/svg" xmlns:xlink="http://www.w3.org/1999/xlink" xml:space="preserve" xmlns:serif="http://www.serif.com/" style="fill-rule:evenodd;clip-rule:evenodd;stroke-linejoin:round;stroke-miterlimit:2;">
    <g transform="matrix(1,0,0,1,-224.337993,-1352.159434)">
        <g id="Logo-for-dark-background" serif:id="Logo for dark background" transform="matrix(1,0,0,1,69.60571,-2191.147653)">
            <g id="_-Shadow---hinted-" serif:id="«Shadow» (hinted)" transform="matrix(0.999768,0,0,0.998897,-1272.262143,599.949534)">
                <path d="M1673.829,3187.099L1430.326,3187.099L1430.326,2950.613L1771.744,2950.613L1771.744,3187.099L1685.811,3187.099L1701.23,3165.06C1702.299,3163.533 1701.927,3161.424 1700.401,3160.355L1708.283,3149.089C1718.598,3154.314 1731.465,3151.292 1738.288,3141.54C1745.768,3130.848 1743.168,3116.09 1732.485,3108.604C1721.803,3101.117 1707.058,3103.72 1699.578,3114.411C1692.755,3124.163 1694.319,3137.299 1702.753,3145.213L1694.871,3156.479C1693.345,3155.41 1691.239,3155.782 1690.17,3157.309L1672.745,3182.216C1671.677,3183.743 1672.048,3185.851 1673.574,3186.921L1673.829,3187.099ZM1671.523,3186.056C1670.862,3184.666 1670.947,3182.968 1671.892,3181.617L1689.317,3156.711C1690.509,3155.006 1692.69,3154.401 1694.544,3155.128L1701.391,3145.342C1693.158,3137.024 1691.78,3123.74 1698.724,3113.813C1706.534,3102.65 1721.93,3099.933 1733.083,3107.749C1744.236,3115.566 1746.951,3130.975 1739.141,3142.138C1732.196,3152.065 1719.253,3155.312 1708.628,3150.413L1701.781,3160.2C1703.098,3161.696 1703.276,3163.953 1702.083,3165.658L1687.813,3186.056L1770.702,3186.056L1770.702,2951.655L1431.368,2951.655L1431.368,3186.056L1671.523,3186.056Z" style="fill:rgb(221,232,240);fill-opacity:0.5;"/>
            </g>
            <g transform="matrix(0.999768,0,0,0.998897,-1275.262143,595.949534)">
                <path d="M1673.829,3187.099L1430.326,3187.099L1430.326,2950.613L1771.744,2950.613L1771.744,3187.099L1685.811,3187.099L1701.23,3165.06C1702.299,3163.533 1701.927,3161.424 1700.401,3160.355L1708.283,3149.089C1718.598,3154.314 1731.465,3151.292 1738.288,3141.54C1745.768,3130.848 1743.168,3116.09 1732.485,3108.604C1721.803,3101.117 1707.058,3103.72 1699.578,3114.411C1692.755,3124.163 1694.319,3137.299 1702.753,3145.213L1694.871,3156.479C1693.345,3155.41 1691.239,3155.782 1690.17,3157.309L1672.745,3182.216C1671.677,3183.743 1672.048,3185.851 1673.574,3186.921L1673.829,3187.099Z" style="fill:rgb(230,237,242);"/>
                <path d="M1673.829,3187.099L1430.326,3187.099L1430.326,2950.613L1771.744,2950.613L1771.744,3187.099L1685.811,3187.099L1701.23,3165.06C1702.299,3163.533 1701.927,3161.424 1700.401,3160.355L1708.283,3149.089C1718.598,3154.314 1731.465,3151.292 1738.288,3141.54C1745.768,3130.848 1743.168,3116.09 1732.485,3108.604C1721.803,3101.117 1707.058,3103.72 1699.578,3114.411C1692.755,3124.163 1694.319,3137.299 1702.753,3145.213L1694.871,3156.479C1693.345,3155.41 1691.239,3155.782 1690.17,3157.309L1672.745,3182.216C1671.677,3183.743 1672.048,3185.851 1673.574,3186.921L1673.829,3187.099ZM1669.652,3184.596C1669.552,3183.288 1669.887,3181.938 1670.697,3180.78L1688.122,3155.873C1689.469,3153.947 1691.765,3153.077 1693.937,3153.451L1699.514,3145.479C1691.548,3136.634 1690.417,3123.142 1697.529,3112.976C1705.801,3101.152 1722.107,3098.275 1733.92,3106.553C1745.733,3114.832 1748.608,3131.152 1740.336,3142.975C1733.224,3153.142 1720.17,3156.693 1709.141,3152.226L1703.564,3160.197C1704.658,3162.113 1704.626,3164.569 1703.278,3166.495L1690.615,3184.596L1769.243,3184.596L1769.243,2953.115L1432.827,2953.115L1432.827,3184.596L1669.652,3184.596Z" style="fill:rgb(200,80,0);"/>
            </g>
            <g transform="matrix(1.000023,0,0,1.000023,-1752.329908,3470.389891)">
                <path d="M1962.778,153.528C1961.923,154.212 1960.996,154.828 1959.995,155.378C1958.994,155.927 1957.95,156.391 1956.863,156.769C1955.777,157.148 1954.685,157.441 1953.586,157.648C1952.487,157.856 1951.413,157.959 1950.363,157.959C1948.166,157.959 1946.109,157.447 1944.193,156.421C1942.276,155.396 1940.604,154.017 1939.175,152.283C1937.747,150.55 1936.618,148.53 1935.788,146.222C1934.958,143.915 1934.543,141.48 1934.543,138.916C1934.543,136.377 1935.062,133.912 1936.099,131.519C1937.137,129.126 1938.547,126.996 1940.329,125.129C1942.111,123.261 1944.193,121.766 1946.573,120.643C1948.953,119.519 1951.498,118.958 1954.208,118.958C1956.04,118.958 1957.633,119.275 1958.988,119.91C1960.342,120.545 1961.606,121.387 1962.778,122.437L1962.778,102.662L1968.015,100.538L1970.175,100.538L1970.175,157.154L1962.778,157.154L1962.778,153.528ZM1962.778,131.592C1962.778,130.127 1962.503,128.791 1961.954,127.582C1961.405,126.374 1960.69,125.336 1959.811,124.469C1958.933,123.603 1957.938,122.931 1956.827,122.455C1955.716,121.979 1954.599,121.741 1953.476,121.741C1951.987,121.741 1950.595,122.107 1949.301,122.84C1948.007,123.572 1946.878,124.604 1945.914,125.934C1944.949,127.265 1944.186,128.852 1943.625,130.695C1943.063,132.538 1942.783,134.571 1942.783,136.792C1942.783,139.185 1943.088,141.419 1943.698,143.494C1944.309,145.569 1945.145,147.382 1946.207,148.932C1947.269,150.483 1948.514,151.703 1949.942,152.594C1951.37,153.486 1952.902,153.931 1954.538,153.931C1955.319,153.931 1956.107,153.827 1956.9,153.62C1957.694,153.412 1958.444,153.132 1959.152,152.778C1959.86,152.424 1960.526,152.015 1961.148,151.551C1961.771,151.087 1962.314,150.599 1962.778,150.086L1962.778,131.592Z" style="fill:rgb(200,80,0);fill-rule:nonzero;"/>
                <rect x="1978.488" y="137.525" width="17.834" height="4.285" style="fill:rgb(200,80,0);fill-rule:nonzero;"/>
                <path d="M2010.092,118.958L2012.216,118.958L2012.216,127.381C2012.973,126.429 2013.809,125.452 2014.725,124.451C2015.64,123.45 2016.654,122.541 2017.764,121.723C2018.875,120.905 2020.102,120.24 2021.445,119.727C2022.788,119.214 2024.252,118.958 2025.839,118.958C2028.061,118.958 2030.075,119.422 2031.882,120.35C2033.688,121.277 2035.233,122.535 2036.514,124.122C2037.796,125.708 2038.785,127.57 2039.481,129.706C2040.176,131.842 2040.524,134.119 2040.524,136.536C2040.524,139.637 2040.097,142.499 2039.243,145.124C2038.388,147.748 2037.167,150.013 2035.581,151.917C2033.994,153.821 2032.065,155.304 2029.794,156.366C2027.524,157.428 2024.985,157.959 2022.177,157.959C2021.152,157.959 2020.194,157.905 2019.302,157.795C2018.411,157.685 2017.569,157.52 2016.776,157.3C2015.982,157.081 2015.213,156.8 2014.468,156.458C2013.724,156.116 2012.973,155.701 2012.216,155.213L2012.216,172.937L2004.746,172.937L2004.746,121.045L2010.092,118.958ZM2012.216,147.046C2012.216,148.169 2012.46,149.225 2012.949,150.214C2013.437,151.203 2014.121,152.07 2014.999,152.814C2015.878,153.559 2016.928,154.145 2018.149,154.572C2019.37,154.999 2020.712,155.213 2022.177,155.213C2023.569,155.213 2024.881,154.859 2026.114,154.151C2027.347,153.443 2028.421,152.436 2029.337,151.13C2030.252,149.823 2030.972,148.267 2031.497,146.46C2032.022,144.654 2032.285,142.652 2032.285,140.455C2032.285,137.696 2032.04,135.285 2031.552,133.222C2031.064,131.159 2030.386,129.444 2029.52,128.077C2028.653,126.709 2027.628,125.684 2026.444,125C2025.259,124.317 2023.959,123.975 2022.543,123.975C2021.469,123.975 2020.438,124.14 2019.449,124.469C2018.46,124.799 2017.526,125.245 2016.647,125.806C2015.769,126.368 2014.957,127.015 2014.212,127.747C2013.467,128.479 2012.802,129.248 2012.216,130.054L2012.216,147.046Z" style="fill:rgb(200,80,0);fill-rule:nonzero;"/>
                <path d="M2054.152,119.654L2054.152,146.351C2054.152,147.278 2054.365,148.157 2054.793,148.987C2055.22,149.817 2055.812,150.538 2056.569,151.148C2057.326,151.758 2058.198,152.24 2059.187,152.594C2060.176,152.948 2061.244,153.125 2062.392,153.125C2063.124,153.125 2063.911,152.967 2064.754,152.649C2065.596,152.332 2066.42,151.899 2067.226,151.349C2068.031,150.8 2068.782,150.153 2069.478,149.408C2070.174,148.664 2070.766,147.876 2071.254,147.046L2071.254,119.654L2078.651,119.654L2078.651,157.154L2071.254,157.154L2071.254,150.123C2070.595,151.197 2069.771,152.21 2068.782,153.162C2067.793,154.114 2066.725,154.944 2065.578,155.652C2064.43,156.36 2063.246,156.922 2062.025,157.337C2060.805,157.752 2059.645,157.959 2058.546,157.959C2056.911,157.959 2055.373,157.654 2053.932,157.044C2052.492,156.434 2051.234,155.603 2050.16,154.554C2049.086,153.504 2048.238,152.271 2047.615,150.855C2046.992,149.439 2046.681,147.937 2046.681,146.351L2046.681,119.654L2054.152,119.654Z" style="fill:rgb(200,80,0);fill-rule:nonzero;"/>
                <path d="M2085.976,155.213L2112.929,122.803L2085.976,122.803L2085.976,119.654L2123.512,119.654L2123.512,121.265L2095.936,154.004L2123.512,154.004L2123.512,157.154L2085.976,157.154L2085.976,155.213Z" style="fill:rgb(200,80,0);fill-rule:nonzero;"/>
                <path d="M2128.05,155.213L2155.003,122.803L2128.05,122.803L2128.05,119.654L2165.587,119.654L2165.587,121.265L2138.011,154.004L2165.587,154.004L2165.587,157.154L2128.05,157.154L2128.05,155.213Z" style="fill:rgb(200,80,0);fill-rule:nonzero;"/>
                <path d="M2178.955,157.154L2171.484,157.154L2171.484,102.662L2176.794,100.538L2178.955,100.538L2178.955,157.154Z" style="fill:rgb(200,80,0);fill-rule:nonzero;"/>
                <path d="M2203.459,157.959C2200.92,157.959 2198.533,157.483 2196.3,156.531C2194.066,155.579 2192.119,154.285 2190.458,152.649C2188.798,151.014 2187.486,149.091 2186.522,146.882C2185.557,144.672 2185.075,142.322 2185.075,139.832C2185.075,136.829 2185.515,134.052 2186.394,131.501C2187.272,128.949 2188.518,126.746 2190.129,124.891C2191.74,123.035 2193.675,121.582 2195.933,120.533C2198.192,119.483 2200.712,118.958 2203.496,118.958C2205.937,118.958 2208.183,119.391 2210.234,120.258C2212.285,121.125 2214.049,122.284 2215.526,123.737C2217.003,125.19 2218.15,126.868 2218.968,128.772C2219.786,130.677 2220.195,132.666 2220.195,134.742L2192.253,134.742C2192.253,137.256 2192.576,139.588 2193.223,141.736C2193.87,143.885 2194.78,145.74 2195.952,147.303C2197.123,148.865 2198.515,150.086 2200.126,150.965C2201.738,151.844 2203.508,152.283 2205.436,152.283C2207.048,152.283 2208.598,152.021 2210.087,151.496C2211.577,150.971 2212.925,150.281 2214.134,149.427C2215.342,148.572 2216.374,147.596 2217.228,146.497C2218.083,145.398 2218.681,144.263 2219.023,143.091L2221.184,144.043C2220.646,145.972 2219.78,147.779 2218.583,149.463C2217.387,151.148 2215.989,152.619 2214.39,153.876C2212.791,155.134 2211.052,156.128 2209.172,156.861C2207.292,157.593 2205.388,157.959 2203.459,157.959ZM2210.856,131.739C2210.856,130.323 2210.606,129.004 2210.106,127.784C2209.605,126.563 2208.915,125.507 2208.037,124.616C2207.158,123.725 2206.132,123.023 2204.96,122.51C2203.789,121.998 2202.531,121.741 2201.188,121.741C2200.065,121.741 2198.991,121.991 2197.966,122.492C2196.94,122.992 2196.025,123.688 2195.219,124.579C2194.414,125.47 2193.748,126.526 2193.223,127.747C2192.698,128.968 2192.387,130.286 2192.29,131.702L2210.856,131.739Z" style="fill:rgb(200,80,0);fill-rule:nonzero;"/>
            </g>
        </g>
    </g>
</svg>
