<?xml version="1.0" encoding="UTF-8" standalone="no"?>
<!DOCTYPE svg PUBLIC "-//W3C//DTD SVG 1.1//EN" "http://www.w3.org/Graphics/SVG/1.1/DTD/svg11.dtd">
<svg width="100%" height="100%" viewBox="0 0 450 58" version="1.1" xmlns="http://www.w3.org/2000/svg" xmlns:xlink="http://www.w3.org/1999/xlink" xml:space="preserve" xmlns:affinity="https://www.affinity.studio/" style="fill-rule:evenodd;clip-rule:evenodd;stroke-linejoin:round;stroke-miterlimit:2;">
    <g transform="matrix(1,0,0,1,-2935.392,-4654.304)">
        <g transform="matrix(1,0,0,1,-30.490693,503.268943)">
            <g id="lets-depuzzle-Dark" affinity:id="lets-depuzzle Dark" transform="matrix(1.227582,0,0,1.227582,639.533024,4003.811983)">
                <g>
                    <g transform="matrix(52.135028,0,0,52.135028,1891.469961,157.153772)">
                        <path d="M0.069,-0.714L0.069,-0L0.574,-0L0.574,-0.132L0.226,-0.132L0.226,-0.714L0.069,-0.714Z" style="fill:rgb(200,80,0);fill-rule:nonzero;"/>
                    </g>
                    <g transform="matrix(52.135028,0,0,52.135028,1922.386033,157.153772)">
                        <path d="M0.402,-0.314L0.171,-0.314C0.172,-0.324 0.174,-0.335 0.177,-0.348C0.181,-0.361 0.188,-0.373 0.197,-0.384C0.206,-0.395 0.217,-0.405 0.233,-0.413C0.248,-0.42 0.266,-0.424 0.289,-0.424C0.324,-0.424 0.349,-0.415 0.366,-0.396C0.384,-0.377 0.395,-0.35 0.402,-0.314ZM0.171,-0.224L0.544,-0.224C0.547,-0.264 0.543,-0.302 0.534,-0.339C0.525,-0.376 0.509,-0.408 0.488,-0.437C0.468,-0.466 0.441,-0.488 0.408,-0.506C0.375,-0.523 0.337,-0.531 0.293,-0.531C0.254,-0.531 0.218,-0.524 0.185,-0.51C0.153,-0.496 0.125,-0.477 0.102,-0.453C0.079,-0.428 0.061,-0.399 0.048,-0.366C0.035,-0.333 0.029,-0.297 0.029,-0.258C0.029,-0.218 0.035,-0.181 0.048,-0.148C0.06,-0.115 0.077,-0.086 0.1,-0.062C0.123,-0.038 0.15,-0.019 0.183,-0.007C0.216,0.007 0.252,0.013 0.293,0.013C0.352,0.013 0.402,-0 0.443,-0.027C0.484,-0.054 0.515,-0.098 0.535,-0.16L0.41,-0.16C0.405,-0.144 0.393,-0.129 0.372,-0.115C0.351,-0.1 0.327,-0.093 0.298,-0.093C0.258,-0.093 0.227,-0.103 0.206,-0.124C0.185,-0.145 0.173,-0.178 0.171,-0.224Z" style="fill:rgb(200,80,0);fill-rule:nonzero;"/>
                    </g>
                    <g transform="matrix(52.135028,0,0,52.135028,1952.311539,157.153772)">
                        <path d="M0.234,-0.517L0.234,-0.672L0.092,-0.672L0.092,-0.517L0.006,-0.517L0.006,-0.422L0.092,-0.422L0.092,-0.117C0.092,-0.091 0.096,-0.07 0.105,-0.054C0.114,-0.038 0.126,-0.026 0.141,-0.017C0.155,-0.008 0.173,-0.003 0.193,0.001C0.212,0.004 0.233,0.005 0.255,0.005C0.269,0.005 0.283,0.005 0.298,0.004C0.313,0.003 0.326,0.002 0.338,-0L0.338,-0.11C0.331,-0.109 0.324,-0.108 0.317,-0.107C0.31,-0.106 0.302,-0.106 0.294,-0.106C0.27,-0.106 0.254,-0.11 0.246,-0.118C0.238,-0.126 0.234,-0.142 0.234,-0.166L0.234,-0.422L0.338,-0.422L0.338,-0.517L0.234,-0.517Z" style="fill:rgb(200,80,0);fill-rule:nonzero;"/>
                    </g>
                    <g transform="matrix(52.135028,0,0,52.135028,1970.663069,157.153772)">
                        <rect x="0.086" y="-0.714" width="0.107" height="0.321" style="fill:rgb(200,80,0);fill-rule:nonzero;"/>
                    </g>
                    <g transform="matrix(52.135028,0,0,52.135028,1985.156607,157.153772)">
                        <path d="M0.164,-0.168L0.029,-0.168C0.03,-0.133 0.038,-0.104 0.052,-0.082C0.067,-0.058 0.085,-0.04 0.107,-0.026C0.13,-0.012 0.155,-0.002 0.184,0.004C0.213,0.01 0.242,0.013 0.272,0.013C0.301,0.013 0.33,0.01 0.358,0.005C0.387,-0.001 0.412,-0.011 0.434,-0.025C0.456,-0.039 0.474,-0.057 0.487,-0.081C0.501,-0.103 0.508,-0.132 0.508,-0.166C0.508,-0.19 0.503,-0.21 0.494,-0.227C0.485,-0.243 0.472,-0.257 0.457,-0.268C0.442,-0.279 0.424,-0.287 0.405,-0.294C0.385,-0.301 0.365,-0.306 0.344,-0.311C0.324,-0.316 0.304,-0.32 0.285,-0.324C0.266,-0.328 0.249,-0.333 0.234,-0.338C0.218,-0.343 0.206,-0.349 0.197,-0.357C0.188,-0.365 0.183,-0.375 0.183,-0.388C0.183,-0.399 0.186,-0.407 0.191,-0.414C0.196,-0.42 0.203,-0.425 0.21,-0.428C0.218,-0.431 0.227,-0.433 0.236,-0.434C0.245,-0.435 0.254,-0.436 0.262,-0.436C0.287,-0.436 0.309,-0.431 0.328,-0.421C0.347,-0.412 0.357,-0.393 0.359,-0.366L0.494,-0.366C0.491,-0.398 0.483,-0.425 0.47,-0.446C0.456,-0.467 0.439,-0.483 0.418,-0.496C0.397,-0.509 0.374,-0.518 0.348,-0.523C0.321,-0.528 0.294,-0.531 0.266,-0.531C0.238,-0.531 0.211,-0.529 0.184,-0.523C0.157,-0.518 0.133,-0.51 0.112,-0.497C0.091,-0.485 0.073,-0.468 0.06,-0.447C0.048,-0.426 0.041,-0.398 0.041,-0.365C0.041,-0.342 0.046,-0.323 0.055,-0.307C0.064,-0.292 0.077,-0.279 0.092,-0.269C0.107,-0.258 0.125,-0.25 0.144,-0.243C0.164,-0.237 0.184,-0.232 0.205,-0.227C0.256,-0.216 0.295,-0.206 0.324,-0.195C0.352,-0.184 0.366,-0.168 0.366,-0.147C0.366,-0.134 0.363,-0.124 0.357,-0.116C0.351,-0.107 0.343,-0.1 0.335,-0.096C0.326,-0.09 0.316,-0.087 0.304,-0.085C0.294,-0.082 0.283,-0.081 0.273,-0.081C0.259,-0.081 0.246,-0.083 0.233,-0.086C0.22,-0.089 0.208,-0.094 0.198,-0.102C0.188,-0.108 0.18,-0.118 0.174,-0.129C0.167,-0.139 0.164,-0.153 0.164,-0.168Z" style="fill:rgb(200,80,0);fill-rule:nonzero;"/>
                    </g>
                    <g transform="matrix(52.135028,0,0,52.135028,2027.646655,157.153772)">
                        <path d="M0.421,-0.26C0.421,-0.239 0.419,-0.218 0.415,-0.198C0.411,-0.178 0.404,-0.16 0.395,-0.144C0.386,-0.129 0.373,-0.116 0.357,-0.107C0.342,-0.098 0.322,-0.093 0.299,-0.093C0.277,-0.093 0.258,-0.098 0.242,-0.107C0.227,-0.117 0.214,-0.13 0.204,-0.145C0.193,-0.161 0.186,-0.179 0.181,-0.199C0.176,-0.219 0.174,-0.239 0.174,-0.259C0.174,-0.28 0.176,-0.301 0.18,-0.321C0.185,-0.34 0.192,-0.358 0.202,-0.373C0.211,-0.388 0.224,-0.401 0.24,-0.41C0.256,-0.419 0.276,-0.424 0.299,-0.424C0.322,-0.424 0.342,-0.419 0.357,-0.41C0.372,-0.401 0.385,-0.389 0.395,-0.373C0.404,-0.359 0.411,-0.341 0.415,-0.322C0.419,-0.302 0.421,-0.281 0.421,-0.26ZM0.423,-0.066L0.423,-0L0.558,-0L0.558,-0.714L0.416,-0.714L0.416,-0.454L0.414,-0.454C0.398,-0.479 0.376,-0.498 0.349,-0.512C0.321,-0.525 0.292,-0.531 0.261,-0.531C0.223,-0.531 0.19,-0.523 0.161,-0.509C0.132,-0.494 0.108,-0.474 0.089,-0.449C0.07,-0.424 0.056,-0.396 0.046,-0.363C0.037,-0.331 0.032,-0.298 0.032,-0.263C0.032,-0.227 0.037,-0.192 0.046,-0.159C0.056,-0.126 0.07,-0.096 0.089,-0.071C0.108,-0.045 0.133,-0.024 0.162,-0.009C0.191,0.006 0.225,0.013 0.264,0.013C0.298,0.013 0.329,0.007 0.355,-0.005C0.383,-0.018 0.404,-0.038 0.421,-0.066L0.423,-0.066Z" style="fill:rgb(200,80,0);fill-rule:nonzero;"/>
                    </g>
                    <g transform="matrix(52.135028,0,0,52.135028,2059.501157,157.153772)">
                        <path d="M0.402,-0.314L0.171,-0.314C0.172,-0.324 0.174,-0.335 0.177,-0.348C0.181,-0.361 0.188,-0.373 0.197,-0.384C0.206,-0.395 0.217,-0.405 0.233,-0.413C0.248,-0.42 0.266,-0.424 0.289,-0.424C0.324,-0.424 0.349,-0.415 0.366,-0.396C0.384,-0.377 0.395,-0.35 0.402,-0.314ZM0.171,-0.224L0.544,-0.224C0.547,-0.264 0.543,-0.302 0.534,-0.339C0.525,-0.376 0.509,-0.408 0.488,-0.437C0.468,-0.466 0.441,-0.488 0.408,-0.506C0.375,-0.523 0.337,-0.531 0.293,-0.531C0.254,-0.531 0.218,-0.524 0.185,-0.51C0.153,-0.496 0.125,-0.477 0.102,-0.453C0.079,-0.428 0.061,-0.399 0.048,-0.366C0.035,-0.333 0.029,-0.297 0.029,-0.258C0.029,-0.218 0.035,-0.181 0.048,-0.148C0.06,-0.115 0.077,-0.086 0.1,-0.062C0.123,-0.038 0.15,-0.019 0.183,-0.007C0.216,0.007 0.252,0.013 0.293,0.013C0.352,0.013 0.402,-0 0.443,-0.027C0.484,-0.054 0.515,-0.098 0.535,-0.16L0.41,-0.16C0.405,-0.144 0.393,-0.129 0.372,-0.115C0.351,-0.1 0.327,-0.093 0.298,-0.093C0.258,-0.093 0.227,-0.103 0.206,-0.124C0.185,-0.145 0.173,-0.178 0.171,-0.224Z" style="fill:rgb(200,80,0);fill-rule:nonzero;"/>
                    </g>
                    <g transform="matrix(52.135028,0,0,52.135028,2089.426663,157.153772)">
                        <path d="M0.315,-0.093C0.292,-0.093 0.273,-0.098 0.257,-0.107C0.241,-0.116 0.228,-0.129 0.218,-0.144C0.209,-0.159 0.202,-0.176 0.198,-0.196C0.193,-0.216 0.191,-0.236 0.191,-0.257C0.191,-0.278 0.193,-0.299 0.197,-0.319C0.201,-0.339 0.208,-0.357 0.217,-0.372C0.227,-0.387 0.24,-0.4 0.256,-0.41C0.271,-0.419 0.291,-0.424 0.314,-0.424C0.337,-0.424 0.356,-0.419 0.371,-0.41C0.387,-0.4 0.4,-0.387 0.41,-0.371C0.42,-0.356 0.427,-0.338 0.431,-0.318C0.436,-0.298 0.438,-0.278 0.438,-0.257C0.438,-0.236 0.436,-0.216 0.432,-0.196C0.428,-0.176 0.421,-0.159 0.412,-0.144C0.402,-0.129 0.389,-0.116 0.373,-0.107C0.358,-0.098 0.338,-0.093 0.315,-0.093ZM0.054,-0.517L0.054,0.181L0.196,0.181L0.196,-0.064L0.198,-0.064C0.215,-0.039 0.238,-0.019 0.265,-0.007C0.292,0.007 0.321,0.013 0.353,0.013C0.391,0.013 0.424,0.006 0.453,-0.009C0.481,-0.024 0.505,-0.043 0.523,-0.068C0.542,-0.093 0.557,-0.121 0.566,-0.153C0.575,-0.185 0.58,-0.218 0.58,-0.253C0.58,-0.29 0.575,-0.325 0.566,-0.358C0.557,-0.392 0.542,-0.422 0.523,-0.447C0.504,-0.472 0.479,-0.493 0.45,-0.508C0.421,-0.523 0.386,-0.531 0.345,-0.531C0.313,-0.531 0.284,-0.525 0.257,-0.512C0.23,-0.499 0.208,-0.479 0.191,-0.451L0.189,-0.451L0.189,-0.517L0.054,-0.517Z" style="fill:rgb(200,80,0);fill-rule:nonzero;"/>
                    </g>
                    <g transform="matrix(52.135028,0,0,52.135028,2121.281166,157.153772)">
                        <path d="M0.539,-0L0.539,-0.517L0.397,-0.517L0.397,-0.246C0.397,-0.193 0.388,-0.155 0.371,-0.133C0.354,-0.11 0.326,-0.098 0.287,-0.098C0.253,-0.098 0.229,-0.108 0.216,-0.13C0.203,-0.15 0.196,-0.182 0.196,-0.225L0.196,-0.517L0.054,-0.517L0.054,-0.199C0.054,-0.167 0.057,-0.138 0.062,-0.112C0.068,-0.085 0.078,-0.063 0.092,-0.044C0.106,-0.026 0.125,-0.012 0.149,-0.002C0.174,0.008 0.205,0.013 0.243,0.013C0.273,0.013 0.302,0.006 0.331,-0.007C0.36,-0.02 0.383,-0.042 0.401,-0.072L0.404,-0.072L0.404,-0L0.539,-0Z" style="fill:rgb(200,80,0);fill-rule:nonzero;"/>
                    </g>
                    <g transform="matrix(52.135028,0,0,52.135028,2152.197237,157.153772)">
                        <path d="M0.022,-0.107L0.022,-0L0.497,-0L0.497,-0.107L0.209,-0.107L0.478,-0.41L0.478,-0.517L0.042,-0.517L0.042,-0.41L0.291,-0.41L0.022,-0.107Z" style="fill:rgb(200,80,0);fill-rule:nonzero;"/>
                    </g>
                    <g transform="matrix(52.135028,0,0,52.135028,2179.255317,157.153772)">
                        <path d="M0.022,-0.107L0.022,-0L0.497,-0L0.497,-0.107L0.209,-0.107L0.478,-0.41L0.478,-0.517L0.042,-0.517L0.042,-0.41L0.291,-0.41L0.022,-0.107Z" style="fill:rgb(200,80,0);fill-rule:nonzero;"/>
                    </g>
                    <g transform="matrix(52.135028,0,0,52.135028,2206.313397,157.153772)">
                        <rect x="0.058" y="-0.714" width="0.142" height="0.714" style="fill:rgb(200,80,0);fill-rule:nonzero;"/>
                    </g>
                    <g transform="matrix(52.135028,0,0,52.135028,2219.764234,157.153772)">
                        <path d="M0.402,-0.314L0.171,-0.314C0.172,-0.324 0.174,-0.335 0.177,-0.348C0.181,-0.361 0.188,-0.373 0.197,-0.384C0.206,-0.395 0.217,-0.405 0.233,-0.413C0.248,-0.42 0.266,-0.424 0.289,-0.424C0.324,-0.424 0.349,-0.415 0.366,-0.396C0.384,-0.377 0.395,-0.35 0.402,-0.314ZM0.171,-0.224L0.544,-0.224C0.547,-0.264 0.543,-0.302 0.534,-0.339C0.525,-0.376 0.509,-0.408 0.488,-0.437C0.468,-0.466 0.441,-0.488 0.408,-0.506C0.375,-0.523 0.337,-0.531 0.293,-0.531C0.254,-0.531 0.218,-0.524 0.185,-0.51C0.153,-0.496 0.125,-0.477 0.102,-0.453C0.079,-0.428 0.061,-0.399 0.048,-0.366C0.035,-0.333 0.029,-0.297 0.029,-0.258C0.029,-0.218 0.035,-0.181 0.048,-0.148C0.06,-0.115 0.077,-0.086 0.1,-0.062C0.123,-0.038 0.15,-0.019 0.183,-0.007C0.216,0.007 0.252,0.013 0.293,0.013C0.352,0.013 0.402,-0 0.443,-0.027C0.484,-0.054 0.515,-0.098 0.535,-0.16L0.41,-0.16C0.405,-0.144 0.393,-0.129 0.372,-0.115C0.351,-0.1 0.327,-0.093 0.298,-0.093C0.258,-0.093 0.227,-0.103 0.206,-0.124C0.185,-0.145 0.173,-0.178 0.171,-0.224Z" style="fill:rgb(200,80,0);fill-rule:nonzero;"/>
                    </g>
                    <g transform="matrix(52.135028,0,0,52.135028,2249.68974,157.153772)">
                        <rect x="0.06" y="-0.154" width="0.157" height="0.154" style="fill:rgb(200,80,0);fill-rule:nonzero;"/>
                    </g>
                </g>
            </g>
        </g>
    </g>
</svg>
